<?xml version="1.0" encoding="UTF-8" standalone="no"?>
<!DOCTYPE svg PUBLIC "-//W3C//DTD SVG 1.1//EN"
 "http://www.w3.org/Graphics/SVG/1.1/DTD/svg11.dtd">
<!-- Generated by graphviz version 2.40.1 (20161225.0304)
 -->
<!-- Title: %3 Pages: 1 -->
<svg width="886pt" height="239pt"
 viewBox="0.00 0.00 886.00 239.00" xmlns="http://www.w3.org/2000/svg" xmlns:xlink="http://www.w3.org/1999/xlink">
<g id="graph0" class="graph" transform="scale(1 1) rotate(0) translate(4 235)">
<title>%3</title>
<polygon fill="#ffffff" stroke="transparent" points="-4,4 -4,-235 882,-235 882,4 -4,4"/>
<!-- 0 -->
<g id="node1" class="node">
<title>0</title>
<polygon fill="none" stroke="#000000" points="99,-53 0,-53 0,0 99,0 99,-53"/>
<text text-anchor="middle" x="49.5" y="-37.8" font-family="Fira Code" font-size="14.00" fill="#000000">app::bar</text>
<text text-anchor="middle" x="49.5" y="-22.8" font-family="Fira Code" font-size="14.00" fill="#000000">max = 16</text>
<text text-anchor="middle" x="49.5" y="-7.8" font-family="Fira Code" font-size="14.00" fill="#000000">local = 16</text>
</g>
<!-- 1 -->
<g id="node2" class="node">
<title>1</title>
<polygon fill="none" stroke="#000000" points="208,-53 117,-53 117,0 208,0 208,-53"/>
<text text-anchor="middle" x="162.5" y="-37.8" font-family="Fira Code" font-size="14.00" fill="#000000">app::foo</text>
<text text-anchor="middle" x="162.5" y="-22.8" font-family="Fira Code" font-size="14.00" fill="#000000">max = 8</text>
<text text-anchor="middle" x="162.5" y="-7.8" font-family="Fira Code" font-size="14.00" fill="#000000">local = 8</text>
</g>
<!-- 2 -->
<g id="node3" class="node">
<title>2</title>
<polygon fill="none" stroke="#000000" points="411,-142 320,-142 320,-89 411,-89 411,-142"/>
<text text-anchor="middle" x="365.5" y="-126.8" font-family="Fira Code" font-size="14.00" fill="#000000">app::baz</text>
<text text-anchor="middle" x="365.5" y="-111.8" font-family="Fira Code" font-size="14.00" fill="#000000">max = 8</text>
<text text-anchor="middle" x="365.5" y="-96.8" font-family="Fira Code" font-size="14.00" fill="#000000">local = 8</text>
</g>
<!-- 3 -->
<g id="node4" class="node">
<title>3</title>
<polygon fill="none" stroke="#000000" points="151,-142 60,-142 60,-89 151,-89 151,-142"/>
<text text-anchor="middle" x="105.5" y="-126.8" font-family="Fira Code" font-size="14.00" fill="#000000">main</text>
<text text-anchor="middle" x="105.5" y="-111.8" font-family="Fira Code" font-size="14.00" fill="#000000">max = 16</text>
<text text-anchor="middle" x="105.5" y="-96.8" font-family="Fira Code" font-size="14.00" fill="#000000">local = 0</text>
</g>
<!-- 3&#45;&gt;0 -->
<g id="edge5" class="edge">
<title>3&#45;&gt;0</title>
<path fill="none" stroke="#000000" d="M88.6982,-88.7971C83.3823,-80.3487 77.4218,-70.8757 71.7842,-61.9159"/>
<polygon fill="#000000" stroke="#000000" points="74.578,-59.784 66.29,-53.1841 68.6533,-63.512 74.578,-59.784"/>
</g>
<!-- 3&#45;&gt;1 -->
<g id="edge4" class="edge">
<title>3&#45;&gt;1</title>
<path fill="none" stroke="#000000" d="M122.6019,-88.7971C128.069,-80.2607 134.2061,-70.6782 139.9971,-61.6361"/>
<polygon fill="#000000" stroke="#000000" points="142.9643,-63.4927 145.4102,-53.1841 137.0696,-59.7175 142.9643,-63.4927"/>
</g>
<!-- 4 -->
<g id="node5" class="node">
<title>4</title>
<polygon fill="none" stroke="#000000" points="411,-231 320,-231 320,-178 411,-178 411,-231"/>
<text text-anchor="middle" x="365.5" y="-215.8" font-family="Fira Code" font-size="14.00" fill="#000000">SysTick</text>
<text text-anchor="middle" x="365.5" y="-200.8" font-family="Fira Code" font-size="14.00" fill="#000000">max = 8</text>
<text text-anchor="middle" x="365.5" y="-185.8" font-family="Fira Code" font-size="14.00" fill="#000000">local = 0</text>
</g>
<!-- 4&#45;&gt;2 -->
<g id="edge1" class="edge">
<title>4&#45;&gt;2</title>
<path fill="none" stroke="#000000" d="M365.5,-177.7971C365.5,-169.7887 365.5,-160.8597 365.5,-152.3198"/>
<polygon fill="#000000" stroke="#000000" points="369.0001,-152.1841 365.5,-142.1841 362.0001,-152.1841 369.0001,-152.1841"/>
</g>
<!-- 5 -->
<g id="node6" class="node">
<title>5</title>
<polygon fill="none" stroke="#000000" points="216,-231 125,-231 125,-178 216,-178 216,-231"/>
<text text-anchor="middle" x="170.5" y="-215.8" font-family="Fira Code" font-size="14.00" fill="#000000">Reset</text>
<text text-anchor="middle" x="170.5" y="-200.8" font-family="Fira Code" font-size="14.00" fill="#000000">max = 16</text>
<text text-anchor="middle" x="170.5" y="-185.8" font-family="Fira Code" font-size="14.00" fill="#000000">local = 0</text>
</g>
<!-- 5&#45;&gt;3 -->
<g id="edge3" class="edge">
<title>5&#45;&gt;3</title>
<path fill="none" stroke="#000000" d="M150.9979,-177.7971C144.6992,-169.1727 137.6206,-159.4806 130.9571,-150.3566"/>
<polygon fill="#000000" stroke="#000000" points="133.7128,-148.1954 124.9884,-142.1841 128.0599,-152.324 133.7128,-148.1954"/>
</g>
<!-- 7 -->
<g id="node8" class="node">
<title>7</title>
<polygon fill="none" stroke="#000000" points="301.5,-142 169.5,-142 169.5,-89 301.5,-89 301.5,-142"/>
<text text-anchor="middle" x="235.5" y="-126.8" font-family="Fira Code" font-size="14.00" fill="#000000">DefaultPreInit</text>
<text text-anchor="middle" x="235.5" y="-111.8" font-family="Fira Code" font-size="14.00" fill="#000000">max = 0</text>
<text text-anchor="middle" x="235.5" y="-96.8" font-family="Fira Code" font-size="14.00" fill="#000000">local = 0</text>
</g>
<!-- 5&#45;&gt;7 -->
<g id="edge2" class="edge">
<title>5&#45;&gt;7</title>
<path fill="none" stroke="#000000" d="M190.0021,-177.7971C196.3008,-169.1727 203.3794,-159.4806 210.0429,-150.3566"/>
<polygon fill="#000000" stroke="#000000" points="212.9401,-152.324 216.0116,-142.1841 207.2872,-148.1954 212.9401,-152.324"/>
</g>
<!-- 6 -->
<g id="node7" class="node">
<title>6</title>
<polygon fill="none" stroke="#000000" points="569.5,-231 429.5,-231 429.5,-178 569.5,-178 569.5,-231"/>
<text text-anchor="middle" x="499.5" y="-215.8" font-family="Fira Code" font-size="14.00" fill="#000000">DefaultHandler_</text>
<text text-anchor="middle" x="499.5" y="-200.8" font-family="Fira Code" font-size="14.00" fill="#000000">max = 0</text>
<text text-anchor="middle" x="499.5" y="-185.8" font-family="Fira Code" font-size="14.00" fill="#000000">local = 0</text>
</g>
<!-- 8 -->
<g id="node9" class="node">
<title>8</title>
<polygon fill="none" stroke="#000000" points="687,-231 588,-231 588,-178 687,-178 687,-231"/>
<text text-anchor="middle" x="637.5" y="-215.8" font-family="Fira Code" font-size="14.00" fill="#000000">HardFault_</text>
<text text-anchor="middle" x="637.5" y="-200.8" font-family="Fira Code" font-size="14.00" fill="#000000">max = 0</text>
<text text-anchor="middle" x="637.5" y="-185.8" font-family="Fira Code" font-size="14.00" fill="#000000">local = 0</text>
</g>
<!-- 9 -->
<g id="node10" class="node">
<title>9</title>
<polygon fill="none" stroke="#000000" points="878,-231 705,-231 705,-178 878,-178 878,-231"/>
<text text-anchor="middle" x="791.5" y="-215.8" font-family="Fira Code" font-size="14.00" fill="#000000">HardFaultTrampoline</text>
<text text-anchor="middle" x="791.5" y="-200.8" font-family="Fira Code" font-size="14.00" fill="#000000">max &gt;= 0</text>
<text text-anchor="middle" x="791.5" y="-185.8" font-family="Fira Code" font-size="14.00" fill="#000000">local = ?</text>
</g>
</g>
</svg>
