<?xml version="1.0" encoding="UTF-8" standalone="no"?>
<!DOCTYPE svg PUBLIC "-//W3C//DTD SVG 1.1//EN"
 "http://www.w3.org/Graphics/SVG/1.1/DTD/svg11.dtd">
<!-- Generated by graphviz version 2.40.1 (20161225.0304)
 -->
<!-- Title: %3 Pages: 1 -->
<svg width="4092pt" height="328pt"
 viewBox="0.00 0.00 4092.00 328.00" xmlns="http://www.w3.org/2000/svg" xmlns:xlink="http://www.w3.org/1999/xlink">
<g id="graph0" class="graph" transform="scale(1 1) rotate(0) translate(4 324)">
<title>%3</title>
<polygon fill="#ffffff" stroke="transparent" points="-4,4 -4,-324 4088,-324 4088,4 -4,4"/>
<!-- 0 -->
<g id="node1" class="node">
<title>0</title>
<polygon fill="none" stroke="#000000" points="2501.5,-320 2394.5,-320 2394.5,-267 2501.5,-267 2501.5,-320"/>
<text text-anchor="middle" x="2448" y="-304.8" font-family="Fira Code" font-size="14.00" fill="#000000">main</text>
<text text-anchor="middle" x="2448" y="-289.8" font-family="Fira Code" font-size="14.00" fill="#000000">max &gt;= 836</text>
<text text-anchor="middle" x="2448" y="-274.8" font-family="Fira Code" font-size="14.00" fill="#000000">local = 768</text>
</g>
<!-- 1 -->
<g id="node2" class="node">
<title>1</title>
<polygon fill="none" stroke="#000000" points="1284.5,-231 781.5,-231 781.5,-178 1284.5,-178 1284.5,-231"/>
<text text-anchor="middle" x="1033" y="-215.8" font-family="Fira Code" font-size="14.00" fill="#000000">&lt;enc28j60::Enc28j60&lt;SPI, NCS, INT, RESET&gt;&gt;::bit_field_clear</text>
<text text-anchor="middle" x="1033" y="-200.8" font-family="Fira Code" font-size="14.00" fill="#000000">max &gt;= 16</text>
<text text-anchor="middle" x="1033" y="-185.8" font-family="Fira Code" font-size="14.00" fill="#000000">local = 16</text>
</g>
<!-- 0&#45;&gt;1 -->
<g id="edge1" class="edge">
<title>0&#45;&gt;1</title>
<path fill="none" stroke="#000000" d="M2394.4804,-290.8716C2236.2832,-283.0064 1757.0796,-258.4909 1360,-231 1338.812,-229.5331 1316.8586,-227.9313 1294.8122,-226.265"/>
<polygon fill="#000000" stroke="#000000" points="1294.9152,-222.7628 1284.6787,-225.4951 1294.3848,-229.7427 1294.9152,-222.7628"/>
</g>
<!-- 2 -->
<g id="node3" class="node">
<title>2</title>
<polygon fill="none" stroke="#000000" points="1633.5,-231 1402.5,-231 1402.5,-178 1633.5,-178 1633.5,-231"/>
<text text-anchor="middle" x="1518" y="-215.8" font-family="Fira Code" font-size="14.00" fill="#000000">jnet::coap::Option::number</text>
<text text-anchor="middle" x="1518" y="-200.8" font-family="Fira Code" font-size="14.00" fill="#000000">max = 0</text>
<text text-anchor="middle" x="1518" y="-185.8" font-family="Fira Code" font-size="14.00" fill="#000000">local = 0</text>
</g>
<!-- 0&#45;&gt;2 -->
<g id="edge2" class="edge">
<title>0&#45;&gt;2</title>
<path fill="none" stroke="#000000" d="M2394.3883,-291.5926C2265.3306,-286.5054 1927.3654,-270.2345 1648,-231 1646.6849,-230.8153 1645.363,-230.6255 1644.0355,-230.4309"/>
<polygon fill="#000000" stroke="#000000" points="1644.1773,-226.9116 1633.7614,-228.8502 1643.1128,-233.8302 1644.1773,-226.9116"/>
</g>
<!-- 3 -->
<g id="node4" class="node">
<title>3</title>
<polygon fill="none" stroke="#000000" points="2094,-231 1690,-231 1690,-178 2094,-178 2094,-231"/>
<text text-anchor="middle" x="1892" y="-215.8" font-family="Fira Code" font-size="14.00" fill="#000000">&lt;heapless::indexmap::IndexMap&lt;K, V, N, S&gt;&gt;::get</text>
<text text-anchor="middle" x="1892" y="-200.8" font-family="Fira Code" font-size="14.00" fill="#000000">max = 36</text>
<text text-anchor="middle" x="1892" y="-185.8" font-family="Fira Code" font-size="14.00" fill="#000000">local = 20</text>
</g>
<!-- 0&#45;&gt;3 -->
<g id="edge3" class="edge">
<title>0&#45;&gt;3</title>
<path fill="none" stroke="#000000" d="M2394.436,-284.9259C2319.7357,-272.9685 2180.7402,-250.7192 2067.849,-232.6485"/>
<polygon fill="#000000" stroke="#000000" points="2068.1288,-229.1488 2057.7013,-231.0241 2067.0223,-236.0608 2068.1288,-229.1488"/>
</g>
<!-- 4 -->
<g id="node5" class="node">
<title>4</title>
<polygon fill="none" stroke="#000000" points="1941.5,-142 1842.5,-142 1842.5,-89 1941.5,-89 1941.5,-142"/>
<text text-anchor="middle" x="1892" y="-126.8" font-family="Fira Code" font-size="14.00" fill="#000000">memcmp</text>
<text text-anchor="middle" x="1892" y="-111.8" font-family="Fira Code" font-size="14.00" fill="#000000">max = 16</text>
<text text-anchor="middle" x="1892" y="-96.8" font-family="Fira Code" font-size="14.00" fill="#000000">local = 16</text>
</g>
<!-- 0&#45;&gt;4 -->
<g id="edge4" class="edge">
<title>0&#45;&gt;4</title>
<path fill="none" stroke="#000000" d="M2394.4972,-291.1133C2224.3143,-283.2662 1705.2087,-257.2616 1681,-231 1665.0344,-213.6805 1666.9061,-196.8739 1681,-178 1699.1842,-153.6485 1776.2612,-135.4252 1832.0068,-125.1184"/>
<polygon fill="#000000" stroke="#000000" points="1832.93,-128.5084 1842.1485,-123.2864 1831.6856,-121.6199 1832.93,-128.5084"/>
</g>
<!-- 5 -->
<g id="node6" class="node">
<title>5</title>
<polygon fill="none" stroke="#000000" points="2541.5,-231 2112.5,-231 2112.5,-178 2541.5,-178 2541.5,-231"/>
<text text-anchor="middle" x="2327" y="-215.8" font-family="Fira Code" font-size="14.00" fill="#000000">&lt;heapless::indexmap::IndexMap&lt;K, V, N, S&gt;&gt;::insert</text>
<text text-anchor="middle" x="2327" y="-200.8" font-family="Fira Code" font-size="14.00" fill="#000000">max = 68</text>
<text text-anchor="middle" x="2327" y="-185.8" font-family="Fira Code" font-size="14.00" fill="#000000">local = 52</text>
</g>
<!-- 0&#45;&gt;5 -->
<g id="edge5" class="edge">
<title>0&#45;&gt;5</title>
<path fill="none" stroke="#000000" d="M2411.696,-266.7971C2399.0136,-257.4687 2384.6328,-246.8911 2371.3681,-237.1344"/>
<polygon fill="#000000" stroke="#000000" points="2373.4078,-234.2898 2363.2784,-231.1841 2369.2601,-239.9288 2373.4078,-234.2898"/>
</g>
<!-- 6 -->
<g id="node7" class="node">
<title>6</title>
<polygon fill="none" stroke="#000000" points="652,-53 0,-53 0,0 652,0 652,-53"/>
<text text-anchor="middle" x="326" y="-37.8" font-family="Fira Code" font-size="14.00" fill="#000000">&lt;enc28j60::Enc28j60&lt;SPI, NCS, INT, RESET&gt;&gt;::_bit_field_set::h446fd1d98d523d16</text>
<text text-anchor="middle" x="326" y="-22.8" font-family="Fira Code" font-size="14.00" fill="#000000">max &gt;= 16</text>
<text text-anchor="middle" x="326" y="-7.8" font-family="Fira Code" font-size="14.00" fill="#000000">local = 16</text>
</g>
<!-- 0&#45;&gt;6 -->
<g id="edge6" class="edge">
<title>0&#45;&gt;6</title>
<path fill="none" stroke="#000000" d="M2394.2131,-293.0234C2118.7106,-290.3878 872.1196,-276.0435 706,-231 574.4234,-195.3229 437.9035,-107.0413 369.9469,-58.9647"/>
<polygon fill="#000000" stroke="#000000" points="371.7846,-55.9765 361.6094,-53.0239 367.7224,-61.6774 371.7846,-55.9765"/>
</g>
<!-- 7 -->
<g id="node8" class="node">
<title>7</title>
<polygon fill="none" stroke="#000000" points="1396,-53 670,-53 670,0 1396,0 1396,-53"/>
<text text-anchor="middle" x="1033" y="-37.8" font-family="Fira Code" font-size="14.00" fill="#000000">&lt;enc28j60::Enc28j60&lt;SPI, NCS, INT, RESET&gt;&gt;::_write_control_register::h2cba84a5ff4b684b</text>
<text text-anchor="middle" x="1033" y="-22.8" font-family="Fira Code" font-size="14.00" fill="#000000">max &gt;= 16</text>
<text text-anchor="middle" x="1033" y="-7.8" font-family="Fira Code" font-size="14.00" fill="#000000">local = 16</text>
</g>
<!-- 0&#45;&gt;7 -->
<g id="edge7" class="edge">
<title>0&#45;&gt;7</title>
<path fill="none" stroke="#000000" d="M2394.3931,-292.8419C2115.9622,-289.2554 844.7938,-270.749 772,-231 711.5593,-197.9964 666.1742,-142.1189 710,-89 721.6206,-74.9153 747.5852,-63.9674 780.0038,-55.4681"/>
<polygon fill="#000000" stroke="#000000" points="780.9331,-58.8435 789.7852,-53.022 779.2348,-52.0527 780.9331,-58.8435"/>
</g>
<!-- 8 -->
<g id="node9" class="node">
<title>8</title>
<polygon fill="none" stroke="#000000" points="2132,-53 1414,-53 1414,0 2132,0 2132,-53"/>
<text text-anchor="middle" x="1773" y="-37.8" font-family="Fira Code" font-size="14.00" fill="#000000">&lt;enc28j60::Enc28j60&lt;SPI, NCS, INT, RESET&gt;&gt;::_read_control_register::hfe0e89d04d279bfd</text>
<text text-anchor="middle" x="1773" y="-22.8" font-family="Fira Code" font-size="14.00" fill="#000000">max &gt;= 16</text>
<text text-anchor="middle" x="1773" y="-7.8" font-family="Fira Code" font-size="14.00" fill="#000000">local = 8</text>
</g>
<!-- 0&#45;&gt;8 -->
<g id="edge8" class="edge">
<title>0&#45;&gt;8</title>
<path fill="none" stroke="#000000" d="M2394.4083,-292.3427C2184.4511,-287.5522 1427.6666,-267.7811 1393,-231 1311.5187,-144.5487 1476.7731,-86.7346 1614.3634,-55.2501"/>
<polygon fill="#000000" stroke="#000000" points="1615.2327,-58.6421 1624.2183,-53.0287 1613.6934,-51.8134 1615.2327,-58.6421"/>
</g>
<!-- 9 -->
<g id="node10" class="node">
<title>9</title>
<polygon fill="none" stroke="#000000" points="2814,-231 2674,-231 2674,-178 2814,-178 2814,-231"/>
<text text-anchor="middle" x="2744" y="-215.8" font-family="Fira Code" font-size="14.00" fill="#000000">__aeabi_memclr4</text>
<text text-anchor="middle" x="2744" y="-200.8" font-family="Fira Code" font-size="14.00" fill="#000000">max = 8</text>
<text text-anchor="middle" x="2744" y="-185.8" font-family="Fira Code" font-size="14.00" fill="#000000">local = 0</text>
</g>
<!-- 0&#45;&gt;9 -->
<g id="edge9" class="edge">
<title>0&#45;&gt;9</title>
<path fill="none" stroke="#000000" d="M2501.6682,-277.9821C2544.5762,-265.5021 2606.2325,-247.4052 2660,-231 2661.4169,-230.5677 2662.8469,-230.1301 2664.2869,-229.6884"/>
<polygon fill="#000000" stroke="#000000" points="2665.38,-233.014 2673.9044,-226.7224 2663.317,-226.3249 2665.38,-233.014"/>
</g>
<!-- 10 -->
<g id="node11" class="node">
<title>10</title>
<polygon fill="none" stroke="#000000" points="2765,-142 2625,-142 2625,-89 2765,-89 2765,-142"/>
<text text-anchor="middle" x="2695" y="-126.8" font-family="Fira Code" font-size="14.00" fill="#000000">__aeabi_memset4</text>
<text text-anchor="middle" x="2695" y="-111.8" font-family="Fira Code" font-size="14.00" fill="#000000">max = 8</text>
<text text-anchor="middle" x="2695" y="-96.8" font-family="Fira Code" font-size="14.00" fill="#000000">local = 8</text>
</g>
<!-- 0&#45;&gt;10 -->
<g id="edge10" class="edge">
<title>0&#45;&gt;10</title>
<path fill="none" stroke="#000000" d="M2501.6791,-279.1282C2532.9552,-269.0234 2572.0114,-253.2913 2602,-231 2631.387,-209.1559 2656.8269,-175.9322 2673.6345,-150.7163"/>
<polygon fill="#000000" stroke="#000000" points="2676.6816,-152.4512 2679.2119,-142.1629 2670.818,-148.6277 2676.6816,-152.4512"/>
</g>
<!-- 11 -->
<g id="node12" class="node">
<title>11</title>
<polygon fill="none" stroke="#000000" points="2964,-231 2832,-231 2832,-178 2964,-178 2964,-231"/>
<text text-anchor="middle" x="2898" y="-215.8" font-family="Fira Code" font-size="14.00" fill="#000000">__aeabi_memset</text>
<text text-anchor="middle" x="2898" y="-200.8" font-family="Fira Code" font-size="14.00" fill="#000000">max = 8</text>
<text text-anchor="middle" x="2898" y="-185.8" font-family="Fira Code" font-size="14.00" fill="#000000">local = 8</text>
</g>
<!-- 0&#45;&gt;11 -->
<g id="edge11" class="edge">
<title>0&#45;&gt;11</title>
<path fill="none" stroke="#000000" d="M2501.7084,-287.5404C2573.0621,-278.9656 2703.0045,-261.064 2821.9375,-231.1005"/>
<polygon fill="#000000" stroke="#000000" points="2823.1181,-234.4114 2831.9404,-228.5448 2821.3852,-227.6293 2823.1181,-234.4114"/>
</g>
<!-- 12 -->
<g id="node13" class="node">
<title>12</title>
<polygon fill="none" stroke="#000000" points="2400,-142 2260,-142 2260,-89 2400,-89 2400,-142"/>
<text text-anchor="middle" x="2330" y="-126.8" font-family="Fira Code" font-size="14.00" fill="#000000">__aeabi_memcpy4</text>
<text text-anchor="middle" x="2330" y="-111.8" font-family="Fira Code" font-size="14.00" fill="#000000">max = 16</text>
<text text-anchor="middle" x="2330" y="-96.8" font-family="Fira Code" font-size="14.00" fill="#000000">local = 16</text>
</g>
<!-- 0&#45;&gt;12 -->
<g id="edge12" class="edge">
<title>0&#45;&gt;12</title>
<path fill="none" stroke="#000000" d="M2501.7449,-273.6357C2520.4519,-263.8263 2539.3951,-249.9355 2550,-231 2561.5102,-210.4481 2564.1992,-196.7949 2550,-178 2541.1578,-166.2959 2469.2184,-147.2786 2409.9726,-133.2909"/>
<polygon fill="#000000" stroke="#000000" points="2410.7437,-129.8769 2400.209,-131.0037 2409.1471,-136.6923 2410.7437,-129.8769"/>
</g>
<!-- 13 -->
<g id="node14" class="node">
<title>13</title>
<polygon fill="none" stroke="#000000" points="2602,-142 2470,-142 2470,-89 2602,-89 2602,-142"/>
<text text-anchor="middle" x="2536" y="-126.8" font-family="Fira Code" font-size="14.00" fill="#000000">__aeabi_memcpy</text>
<text text-anchor="middle" x="2536" y="-111.8" font-family="Fira Code" font-size="14.00" fill="#000000">max = 16</text>
<text text-anchor="middle" x="2536" y="-96.8" font-family="Fira Code" font-size="14.00" fill="#000000">local = 16</text>
</g>
<!-- 0&#45;&gt;13 -->
<g id="edge13" class="edge">
<title>0&#45;&gt;13</title>
<path fill="none" stroke="#000000" d="M2501.5026,-283.5519C2531.252,-274.9917 2565.8407,-259.3303 2584,-231 2596.7115,-211.1687 2591.5764,-200.3039 2584,-178 2580.6666,-168.187 2575.1032,-158.7091 2568.9214,-150.2271"/>
<polygon fill="#000000" stroke="#000000" points="2571.499,-147.8406 2562.5932,-142.1016 2565.9763,-152.1417 2571.499,-147.8406"/>
</g>
<!-- 14 -->
<g id="node15" class="node">
<title>14</title>
<polygon fill="none" stroke="#000000" points="3672,-231 3020,-231 3020,-178 3672,-178 3672,-231"/>
<text text-anchor="middle" x="3346" y="-215.8" font-family="Fira Code" font-size="14.00" fill="#000000">&lt;enc28j60::Enc28j60&lt;SPI, NCS, INT, RESET&gt;&gt;::_bit_field_set::hb78a1168f2f3970e</text>
<text text-anchor="middle" x="3346" y="-200.8" font-family="Fira Code" font-size="14.00" fill="#000000">max &gt;= 16</text>
<text text-anchor="middle" x="3346" y="-185.8" font-family="Fira Code" font-size="14.00" fill="#000000">local = 16</text>
</g>
<!-- 0&#45;&gt;14 -->
<g id="edge14" class="edge">
<title>0&#45;&gt;14</title>
<path fill="none" stroke="#000000" d="M2501.8177,-288.1662C2611.3574,-277.3098 2866.8999,-251.9832 3068.3253,-232.0201"/>
<polygon fill="#000000" stroke="#000000" points="3068.8734,-235.483 3078.4794,-231.0137 3068.1829,-228.5171 3068.8734,-235.483"/>
</g>
<!-- 15 -->
<g id="node16" class="node">
<title>15</title>
<polygon fill="none" stroke="#000000" points="3348,-53 2622,-53 2622,0 3348,0 3348,-53"/>
<text text-anchor="middle" x="2985" y="-37.8" font-family="Fira Code" font-size="14.00" fill="#000000">&lt;enc28j60::Enc28j60&lt;SPI, NCS, INT, RESET&gt;&gt;::_write_control_register::h43e0ec3127f742c3</text>
<text text-anchor="middle" x="2985" y="-22.8" font-family="Fira Code" font-size="14.00" fill="#000000">max &gt;= 16</text>
<text text-anchor="middle" x="2985" y="-7.8" font-family="Fira Code" font-size="14.00" fill="#000000">local = 16</text>
</g>
<!-- 0&#45;&gt;15 -->
<g id="edge15" class="edge">
<title>0&#45;&gt;15</title>
<path fill="none" stroke="#000000" d="M2501.6128,-290.9573C2628.8883,-284.3889 2941.0222,-264.9523 2973,-231 3015.1651,-186.2315 3005.8424,-108.6363 2995.3508,-62.9881"/>
<polygon fill="#000000" stroke="#000000" points="2998.7362,-62.0969 2992.9721,-53.2072 2991.9344,-63.7511 2998.7362,-62.0969"/>
</g>
<!-- 16 -->
<g id="node17" class="node">
<title>16</title>
<polygon fill="none" stroke="#000000" points="4084,-53 3366,-53 3366,0 4084,0 4084,-53"/>
<text text-anchor="middle" x="3725" y="-37.8" font-family="Fira Code" font-size="14.00" fill="#000000">&lt;enc28j60::Enc28j60&lt;SPI, NCS, INT, RESET&gt;&gt;::_read_control_register::h03066ead668b2a7c</text>
<text text-anchor="middle" x="3725" y="-22.8" font-family="Fira Code" font-size="14.00" fill="#000000">max &gt;= 16</text>
<text text-anchor="middle" x="3725" y="-7.8" font-family="Fira Code" font-size="14.00" fill="#000000">local = 8</text>
</g>
<!-- 0&#45;&gt;16 -->
<g id="edge16" class="edge">
<title>0&#45;&gt;16</title>
<path fill="none" stroke="#000000" d="M2501.5255,-292.5887C2732.6492,-288.4253 3635.4614,-269.7284 3681,-231 3729.2235,-189.9881 3732.1749,-110.0103 3729.1487,-63.1477"/>
<polygon fill="#000000" stroke="#000000" points="3732.6336,-62.8163 3728.3765,-53.1144 3725.6543,-63.3535 3732.6336,-62.8163"/>
</g>
<!-- 18 -->
<g id="node19" class="node">
<title>18</title>
<polygon fill="none" stroke="#000000" points="1346.5,-142 719.5,-142 719.5,-89 1346.5,-89 1346.5,-142"/>
<text text-anchor="middle" x="1033" y="-126.8" font-family="Fira Code" font-size="14.00" fill="#000000">&lt;enc28j60::Enc28j60&lt;SPI, NCS, INT, RESET&gt;&gt;::change_bank::h57cbd6778067ad56</text>
<text text-anchor="middle" x="1033" y="-111.8" font-family="Fira Code" font-size="14.00" fill="#000000">max &gt;= 16</text>
<text text-anchor="middle" x="1033" y="-96.8" font-family="Fira Code" font-size="14.00" fill="#000000">local = 8</text>
</g>
<!-- 1&#45;&gt;18 -->
<g id="edge36" class="edge">
<title>1&#45;&gt;18</title>
<path fill="none" stroke="#000000" d="M1026.7547,-177.7971C1026.276,-169.7887 1026.1378,-160.8597 1026.3402,-152.3198"/>
<polygon fill="#000000" stroke="#000000" points="1029.843,-152.3191 1026.7558,-142.1841 1022.8489,-152.0322 1029.843,-152.3191"/>
</g>
<!-- 3&#45;&gt;4 -->
<g id="edge35" class="edge">
<title>3&#45;&gt;4</title>
<path fill="none" stroke="#000000" d="M1892,-177.7971C1892,-169.7887 1892,-160.8597 1892,-152.3198"/>
<polygon fill="#000000" stroke="#000000" points="1895.5001,-152.1841 1892,-142.1841 1888.5001,-152.1841 1895.5001,-152.1841"/>
</g>
<!-- 5&#45;&gt;4 -->
<g id="edge32" class="edge">
<title>5&#45;&gt;4</title>
<path fill="none" stroke="#000000" d="M2197.3692,-177.9778C2115.8937,-161.3081 2014.6428,-140.5924 1951.6585,-127.706"/>
<polygon fill="#000000" stroke="#000000" points="1952.0039,-124.2042 1941.5052,-125.6287 1950.6007,-131.0622 1952.0039,-124.2042"/>
</g>
<!-- 5&#45;&gt;12 -->
<g id="edge33" class="edge">
<title>5&#45;&gt;12</title>
<path fill="none" stroke="#000000" d="M2327.9001,-177.7971C2328.17,-169.7887 2328.471,-160.8597 2328.7589,-152.3198"/>
<polygon fill="#000000" stroke="#000000" points="2332.2616,-152.2964 2329.1005,-142.1841 2325.2655,-152.0605 2332.2616,-152.2964"/>
</g>
<!-- 5&#45;&gt;13 -->
<g id="edge34" class="edge">
<title>5&#45;&gt;13</title>
<path fill="none" stroke="#000000" d="M2389.4238,-177.9176C2412.8913,-167.9243 2439.7575,-156.4837 2464.0245,-146.1498"/>
<polygon fill="#000000" stroke="#000000" points="2465.7077,-149.2373 2473.537,-142.0991 2462.9651,-142.7969 2465.7077,-149.2373"/>
</g>
<!-- 6&#45;&gt;18 -->
<g id="edge31" class="edge">
<title>6&#45;&gt;18</title>
<path fill="none" stroke="#000000" d="M542.8885,-53.018C630.4431,-63.9564 731.2037,-76.6374 818.514,-87.7055"/>
<polygon fill="#000000" stroke="#000000" points="818.1863,-91.1919 828.5472,-88.9778 819.067,-84.2476 818.1863,-91.1919"/>
</g>
<!-- 7&#45;&gt;18 -->
<g id="edge30" class="edge">
<title>7&#45;&gt;18</title>
<path fill="none" stroke="#000000" d="M1039.2442,-53.1841C1039.7234,-61.191 1039.8621,-70.1196 1039.6603,-78.6601"/>
<polygon fill="#000000" stroke="#000000" points="1036.1574,-78.6622 1039.2453,-88.7971 1043.1515,-78.9486 1036.1574,-78.6622"/>
</g>
<!-- 8&#45;&gt;18 -->
<g id="edge25" class="edge">
<title>8&#45;&gt;18</title>
<path fill="none" stroke="#000000" d="M1558.7474,-53.018C1468.2781,-63.9786 1362.6203,-76.6889 1269.8446,-87.7729"/>
<polygon fill="#000000" stroke="#000000" points="1269.2701,-84.3165 1259.7557,-88.9778 1270.1003,-91.2671 1269.2701,-84.3165"/>
</g>
<!-- 9&#45;&gt;10 -->
<g id="edge24" class="edge">
<title>9&#45;&gt;10</title>
<path fill="none" stroke="#000000" d="M2729.2984,-177.7971C2724.6955,-169.4367 2719.5402,-160.073 2714.6529,-151.1961"/>
<polygon fill="#000000" stroke="#000000" points="2717.5803,-149.2561 2709.6912,-142.1841 2711.4482,-152.6322 2717.5803,-149.2561"/>
</g>
<!-- 17 -->
<g id="node18" class="node">
<title>17</title>
<polygon fill="none" stroke="#000000" points="3659.5,-142 3032.5,-142 3032.5,-89 3659.5,-89 3659.5,-142"/>
<text text-anchor="middle" x="3346" y="-126.8" font-family="Fira Code" font-size="14.00" fill="#000000">&lt;enc28j60::Enc28j60&lt;SPI, NCS, INT, RESET&gt;&gt;::change_bank::he099af5a27de617e</text>
<text text-anchor="middle" x="3346" y="-111.8" font-family="Fira Code" font-size="14.00" fill="#000000">max &gt;= 16</text>
<text text-anchor="middle" x="3346" y="-96.8" font-family="Fira Code" font-size="14.00" fill="#000000">local = 8</text>
</g>
<!-- 14&#45;&gt;17 -->
<g id="edge23" class="edge">
<title>14&#45;&gt;17</title>
<path fill="none" stroke="#000000" d="M3339.7547,-177.7971C3339.276,-169.7887 3339.1378,-160.8597 3339.3402,-152.3198"/>
<polygon fill="#000000" stroke="#000000" points="3342.843,-152.3191 3339.7558,-142.1841 3335.8489,-152.0322 3342.843,-152.3191"/>
</g>
<!-- 15&#45;&gt;17 -->
<g id="edge22" class="edge">
<title>15&#45;&gt;17</title>
<path fill="none" stroke="#000000" d="M3098.8136,-53.0223C3142.1191,-63.5418 3191.3706,-75.6725 3234.463,-86.4301"/>
<polygon fill="#000000" stroke="#000000" points="3233.8649,-89.8882 3244.4152,-88.9176 3235.5623,-83.0972 3233.8649,-89.8882"/>
</g>
<!-- 16&#45;&gt;17 -->
<g id="edge17" class="edge">
<title>16&#45;&gt;17</title>
<path fill="none" stroke="#000000" d="M3618.1479,-53.0564C3573.6588,-63.654 3521.6269,-75.8824 3475.0326,-86.6935"/>
<polygon fill="#000000" stroke="#000000" points="3474.1285,-83.3102 3465.1771,-88.9778 3475.7092,-90.1294 3474.1285,-83.3102"/>
</g>
<!-- 17&#45;&gt;14 -->
<g id="edge18" class="edge">
<title>17&#45;&gt;14</title>
<path fill="none" stroke="#000000" d="M3352.2442,-142.1841C3352.7234,-150.191 3352.8621,-159.1196 3352.6603,-167.6601"/>
<polygon fill="#000000" stroke="#000000" points="3349.1574,-167.6622 3352.2453,-177.7971 3356.1515,-167.9486 3349.1574,-167.6622"/>
</g>
<!-- 17&#45;&gt;15 -->
<g id="edge19" class="edge">
<title>17&#45;&gt;15</title>
<path fill="none" stroke="#000000" d="M3231.939,-88.9176C3188.6108,-78.392 3139.3599,-66.2608 3096.2909,-55.5084"/>
<polygon fill="#000000" stroke="#000000" points="3096.895,-52.0518 3086.3447,-53.0223 3095.1974,-58.8429 3096.895,-52.0518"/>
</g>
<!-- 17&#45;&gt;16 -->
<g id="edge20" class="edge">
<title>17&#45;&gt;16</title>
<path fill="none" stroke="#000000" d="M3452.7082,-88.9778C3497.181,-78.3838 3549.2106,-66.1556 3595.8166,-55.3415"/>
<polygon fill="#000000" stroke="#000000" points="3596.7234,-58.7242 3605.6748,-53.0564 3595.1428,-51.905 3596.7234,-58.7242"/>
</g>
<!-- 17&#45;&gt;17 -->
<g id="edge21" class="edge">
<title>17&#45;&gt;17</title>
<path fill="none" stroke="#000000" d="M3659.5975,-124.894C3670.9714,-122.4126 3677.5,-119.2813 3677.5,-115.5 3677.5,-113.0186 3674.6884,-110.817 3669.5408,-108.8953"/>
<polygon fill="#000000" stroke="#000000" points="3670.1712,-105.4371 3659.5975,-106.106 3668.2804,-112.1769 3670.1712,-105.4371"/>
</g>
<!-- 18&#45;&gt;1 -->
<g id="edge29" class="edge">
<title>18&#45;&gt;1</title>
<path fill="none" stroke="#000000" d="M1039.2442,-142.1841C1039.7234,-150.191 1039.8621,-159.1196 1039.6603,-167.6601"/>
<polygon fill="#000000" stroke="#000000" points="1036.1574,-167.6622 1039.2453,-177.7971 1043.1515,-167.9486 1036.1574,-167.6622"/>
</g>
<!-- 18&#45;&gt;6 -->
<g id="edge26" class="edge">
<title>18&#45;&gt;6</title>
<path fill="none" stroke="#000000" d="M816.0783,-88.9778C728.5204,-78.039 627.7599,-65.358 540.453,-54.2903"/>
<polygon fill="#000000" stroke="#000000" points="540.781,-50.8039 530.4201,-53.018 539.9003,-57.7483 540.781,-50.8039"/>
</g>
<!-- 18&#45;&gt;7 -->
<g id="edge27" class="edge">
<title>18&#45;&gt;7</title>
<path fill="none" stroke="#000000" d="M1026.7547,-88.7971C1026.276,-80.7887 1026.1378,-71.8597 1026.3402,-63.3198"/>
<polygon fill="#000000" stroke="#000000" points="1029.843,-63.3191 1026.7558,-53.1841 1022.8489,-63.0322 1029.843,-63.3191"/>
</g>
<!-- 18&#45;&gt;8 -->
<g id="edge28" class="edge">
<title>18&#45;&gt;8</title>
<path fill="none" stroke="#000000" d="M1247.2869,-88.9778C1337.7599,-78.0168 1443.418,-65.3065 1536.1905,-54.2229"/>
<polygon fill="#000000" stroke="#000000" points="1536.7646,-57.6793 1546.279,-53.018 1535.9344,-50.7287 1536.7646,-57.6793"/>
</g>
</g>
</svg>
