<?xml version="1.0" encoding="UTF-8" standalone="no"?>
<!DOCTYPE svg PUBLIC "-//W3C//DTD SVG 1.1//EN"
 "http://www.w3.org/Graphics/SVG/1.1/DTD/svg11.dtd">
<!-- Generated by graphviz version 2.40.1 (20161225.0304)
 -->
<!-- Title: %3 Pages: 1 -->
<svg width="424pt" height="239pt"
 viewBox="0.00 0.00 423.50 239.00" xmlns="http://www.w3.org/2000/svg" xmlns:xlink="http://www.w3.org/1999/xlink">
<g id="graph0" class="graph" transform="scale(1 1) rotate(0) translate(4 235)">
<title>%3</title>
<polygon fill="#ffffff" stroke="transparent" points="-4,4 -4,-235 419.5,-235 419.5,4 -4,4"/>
<!-- 0 -->
<g id="node1" class="node">
<title>0</title>
<polygon fill="none" stroke="#000000" points="330,-231 239,-231 239,-178 330,-178 330,-231"/>
<text text-anchor="middle" x="284.5" y="-215.8" font-family="Fira Code" font-size="14.00" fill="#000000">main</text>
<text text-anchor="middle" x="284.5" y="-200.8" font-family="Fira Code" font-size="14.00" fill="#000000">max = 16</text>
<text text-anchor="middle" x="284.5" y="-185.8" font-family="Fira Code" font-size="14.00" fill="#000000">local = 0</text>
</g>
<!-- 1 -->
<g id="node2" class="node">
<title>1</title>
<polygon fill="none" stroke="#000000" points="265,-142 174,-142 174,-89 265,-89 265,-142"/>
<text text-anchor="middle" x="219.5" y="-126.8" font-family="Fira Code" font-size="14.00" fill="#000000">i1 ({}*)</text>
<text text-anchor="middle" x="219.5" y="-111.8" font-family="Fira Code" font-size="14.00" fill="#000000">max = 16</text>
<text text-anchor="middle" x="219.5" y="-96.8" font-family="Fira Code" font-size="14.00" fill="#000000">local = 0</text>
</g>
<!-- 0&#45;&gt;1 -->
<g id="edge1" class="edge">
<title>0&#45;&gt;1</title>
<path fill="none" stroke="#000000" d="M264.9979,-177.7971C258.6992,-169.1727 251.6206,-159.4806 244.9571,-150.3566"/>
<polygon fill="#000000" stroke="#000000" points="247.7128,-148.1954 238.9884,-142.1841 242.0599,-152.324 247.7128,-148.1954"/>
</g>
<!-- 2 -->
<g id="node3" class="node">
<title>2</title>
<polygon fill="none" stroke="#000000" points="415.5,-142 283.5,-142 283.5,-89 415.5,-89 415.5,-142"/>
<text text-anchor="middle" x="349.5" y="-126.8" font-family="Fira Code" font-size="14.00" fill="#000000">app::Quux::foo</text>
<text text-anchor="middle" x="349.5" y="-111.8" font-family="Fira Code" font-size="14.00" fill="#000000">max = 0</text>
<text text-anchor="middle" x="349.5" y="-96.8" font-family="Fira Code" font-size="14.00" fill="#000000">local = 0</text>
</g>
<!-- 0&#45;&gt;2 -->
<g id="edge2" class="edge">
<title>0&#45;&gt;2</title>
<path fill="none" stroke="#000000" d="M304.0021,-177.7971C310.3008,-169.1727 317.3794,-159.4806 324.0429,-150.3566"/>
<polygon fill="#000000" stroke="#000000" points="326.9401,-152.324 330.0116,-142.1841 321.2872,-148.1954 326.9401,-152.324"/>
</g>
<!-- 3 -->
<g id="node4" class="node">
<title>3</title>
<polygon fill="none" stroke="#000000" points="239,-53 0,-53 0,0 239,0 239,-53"/>
<text text-anchor="middle" x="119.5" y="-37.8" font-family="Fira Code" font-size="14.00" fill="#000000">&lt;app::Baz as app::Foo&gt;::foo</text>
<text text-anchor="middle" x="119.5" y="-22.8" font-family="Fira Code" font-size="14.00" fill="#000000">max = 16</text>
<text text-anchor="middle" x="119.5" y="-7.8" font-family="Fira Code" font-size="14.00" fill="#000000">local = 16</text>
</g>
<!-- 1&#45;&gt;3 -->
<g id="edge3" class="edge">
<title>1&#45;&gt;3</title>
<path fill="none" stroke="#000000" d="M189.4967,-88.7971C179.312,-79.7327 167.802,-69.4888 157.1008,-59.9647"/>
<polygon fill="#000000" stroke="#000000" points="159.279,-57.2179 149.4821,-53.1841 154.6252,-62.4469 159.279,-57.2179"/>
</g>
<!-- 4 -->
<g id="node5" class="node">
<title>4</title>
<polygon fill="none" stroke="#000000" points="381.5,-53 257.5,-53 257.5,0 381.5,0 381.5,-53"/>
<text text-anchor="middle" x="319.5" y="-37.8" font-family="Fira Code" font-size="14.00" fill="#000000">app::Foo::foo</text>
<text text-anchor="middle" x="319.5" y="-22.8" font-family="Fira Code" font-size="14.00" fill="#000000">max = 8</text>
<text text-anchor="middle" x="319.5" y="-7.8" font-family="Fira Code" font-size="14.00" fill="#000000">local = 8</text>
</g>
<!-- 1&#45;&gt;4 -->
<g id="edge4" class="edge">
<title>1&#45;&gt;4</title>
<path fill="none" stroke="#000000" d="M249.5033,-88.7971C259.688,-79.7327 271.198,-69.4888 281.8992,-59.9647"/>
<polygon fill="#000000" stroke="#000000" points="284.3748,-62.4469 289.5179,-53.1841 279.721,-57.2179 284.3748,-62.4469"/>
</g>
</g>
</svg>
