<?xml version="1.0" encoding="UTF-8" standalone="no"?>
<!DOCTYPE svg PUBLIC "-//W3C//DTD SVG 1.1//EN"
 "http://www.w3.org/Graphics/SVG/1.1/DTD/svg11.dtd">
<!-- Generated by graphviz version 2.40.1 (20161225.0304)
 -->
<!-- Title: %3 Pages: 1 -->
<svg width="244pt" height="347pt"
 viewBox="0.00 0.00 243.50 347.00" xmlns="http://www.w3.org/2000/svg" xmlns:xlink="http://www.w3.org/1999/xlink">
<g id="graph0" class="graph" transform="scale(1 1) rotate(0) translate(4 343)">
<title>%3</title>
<polygon fill="#ffffff" stroke="transparent" points="-4,4 -4,-343 239.5,-343 239.5,4 -4,4"/>
<g id="clust1" class="cluster">
<title>cluster_0</title>
<polygon fill="none" stroke="#000000" stroke-dasharray="5,2" points="99.5,-8 99.5,-278 227.5,-278 227.5,-8 99.5,-8"/>
<text text-anchor="middle" x="163.5" y="-262.8" font-family="monospace" font-size="14.00" fill="#000000">SCC0</text>
</g>
<!-- 0 -->
<g id="node1" class="node">
<title>0</title>
<polygon fill="none" stroke="#000000" points="145,-339 54,-339 54,-286 145,-286 145,-339"/>
<text text-anchor="middle" x="99.5" y="-323.8" font-family="monospace" font-size="14.00" fill="#000000">main</text>
<text text-anchor="middle" x="99.5" y="-308.8" font-family="monospace" font-size="14.00" fill="#000000">max = 8</text>
<text text-anchor="middle" x="99.5" y="-293.8" font-family="monospace" font-size="14.00" fill="#000000">local = 0</text>
</g>
<!-- 1 -->
<g id="node2" class="node">
<title>1</title>
<polygon fill="none" stroke="#000000" points="91,-247 0,-247 0,-194 91,-194 91,-247"/>
<text text-anchor="middle" x="45.5" y="-231.8" font-family="monospace" font-size="14.00" fill="#000000">app::quux</text>
<text text-anchor="middle" x="45.5" y="-216.8" font-family="monospace" font-size="14.00" fill="#000000">max = 8</text>
<text text-anchor="middle" x="45.5" y="-201.8" font-family="monospace" font-size="14.00" fill="#000000">local = 8</text>
</g>
<!-- 0&#45;&gt;1 -->
<g id="edge1" class="edge">
<title>0&#45;&gt;1</title>
<path fill="none" stroke="#000000" d="M83.881,-285.8898C78.3958,-276.5447 72.1437,-265.8929 66.3009,-255.9386"/>
<polygon fill="#000000" stroke="#000000" points="69.1644,-253.9029 61.0839,-247.0504 63.1275,-257.4463 69.1644,-253.9029"/>
</g>
<!-- 2 -->
<g id="node3" class="node">
<title>2</title>
<polygon fill="none" stroke="#000000" points="200,-247 109,-247 109,-194 200,-194 200,-247"/>
<text text-anchor="middle" x="154.5" y="-231.8" font-family="monospace" font-size="14.00" fill="#000000">app::foo</text>
<text text-anchor="middle" x="154.5" y="-216.8" font-family="monospace" font-size="14.00" fill="#000000">max = 0</text>
<text text-anchor="middle" x="154.5" y="-201.8" font-family="monospace" font-size="14.00" fill="#000000">local = 0</text>
</g>
<!-- 0&#45;&gt;2 -->
<g id="edge2" class="edge">
<title>0&#45;&gt;2</title>
<path fill="none" stroke="#000000" d="M115.4083,-285.8898C121.052,-276.4494 127.493,-265.6754 133.496,-255.634"/>
<polygon fill="#000000" stroke="#000000" points="136.5003,-257.4295 138.6275,-247.0504 130.4921,-253.8376 136.5003,-257.4295"/>
</g>
<!-- 3 -->
<g id="node4" class="node">
<title>3</title>
<polygon fill="none" stroke="#000000" points="199,-158 108,-158 108,-105 199,-105 199,-158"/>
<text text-anchor="middle" x="153.5" y="-142.8" font-family="monospace" font-size="14.00" fill="#000000">app::bar</text>
<text text-anchor="middle" x="153.5" y="-127.8" font-family="monospace" font-size="14.00" fill="#000000">max = 0</text>
<text text-anchor="middle" x="153.5" y="-112.8" font-family="monospace" font-size="14.00" fill="#000000">local = 0</text>
</g>
<!-- 2&#45;&gt;3 -->
<g id="edge3" class="edge">
<title>2&#45;&gt;3</title>
<path fill="none" stroke="#000000" d="M154.2,-193.7971C154.11,-185.7887 154.0097,-176.8597 153.9137,-168.3198"/>
<polygon fill="#000000" stroke="#000000" points="157.4121,-168.1441 153.7998,-158.1841 150.4125,-168.2228 157.4121,-168.1441"/>
</g>
<!-- 4 -->
<g id="node5" class="node">
<title>4</title>
<polygon fill="none" stroke="#000000" points="209,-69 118,-69 118,-16 209,-16 209,-69"/>
<text text-anchor="middle" x="163.5" y="-53.8" font-family="monospace" font-size="14.00" fill="#000000">app::baz</text>
<text text-anchor="middle" x="163.5" y="-38.8" font-family="monospace" font-size="14.00" fill="#000000">max = 0</text>
<text text-anchor="middle" x="163.5" y="-23.8" font-family="monospace" font-size="14.00" fill="#000000">local = 0</text>
</g>
<!-- 3&#45;&gt;4 -->
<g id="edge4" class="edge">
<title>3&#45;&gt;4</title>
<path fill="none" stroke="#000000" d="M156.5003,-104.7971C157.4001,-96.7887 158.4034,-87.8597 159.3629,-79.3198"/>
<polygon fill="#000000" stroke="#000000" points="162.8632,-79.5124 160.5018,-69.1841 155.907,-78.7307 162.8632,-79.5124"/>
</g>
<!-- 4&#45;&gt;2 -->
<g id="edge5" class="edge">
<title>4&#45;&gt;2</title>
<path fill="none" stroke="#000000" d="M188.2162,-69.0495C196.3192,-79.462 204.3135,-92.0205 208.5,-105 215.7309,-127.4182 216.716,-135.9237 208.5,-158 204.7476,-168.0826 198.5568,-177.6233 191.6791,-186.0738"/>
<polygon fill="#000000" stroke="#000000" points="188.8583,-183.9836 184.9317,-193.824 194.1378,-188.58 188.8583,-183.9836"/>
</g>
</g>
</svg>
