<?xml version="1.0" encoding="UTF-8" standalone="no"?>
<!DOCTYPE svg PUBLIC "-//W3C//DTD SVG 1.1//EN"
 "http://www.w3.org/Graphics/SVG/1.1/DTD/svg11.dtd">
<!-- Generated by graphviz version 2.40.1 (20161225.0304)
 -->
<!-- Title: %3 Pages: 1 -->
<svg width="208pt" height="328pt"
 viewBox="0.00 0.00 208.00 328.00" xmlns="http://www.w3.org/2000/svg" xmlns:xlink="http://www.w3.org/1999/xlink">
<g id="graph0" class="graph" transform="scale(1 1) rotate(0) translate(4 324)">
<title>%3</title>
<polygon fill="#ffffff" stroke="transparent" points="-4,4 -4,-324 204,-324 204,4 -4,4"/>
<!-- 0 -->
<g id="node1" class="node">
<title>0</title>
<polygon fill="none" stroke="#000000" points="145,-320 54,-320 54,-267 145,-267 145,-320"/>
<text text-anchor="middle" x="99.5" y="-304.8" font-family="Fira Code" font-size="14.00" fill="#000000">main</text>
<text text-anchor="middle" x="99.5" y="-289.8" font-family="Fira Code" font-size="14.00" fill="#000000">max = 8</text>
<text text-anchor="middle" x="99.5" y="-274.8" font-family="Fira Code" font-size="14.00" fill="#000000">local = 0</text>
</g>
<!-- 1 -->
<g id="node2" class="node">
<title>1</title>
<polygon fill="none" stroke="#000000" points="91,-231 0,-231 0,-178 91,-178 91,-231"/>
<text text-anchor="middle" x="45.5" y="-215.8" font-family="Fira Code" font-size="14.00" fill="#000000">app::quux</text>
<text text-anchor="middle" x="45.5" y="-200.8" font-family="Fira Code" font-size="14.00" fill="#000000">max = 8</text>
<text text-anchor="middle" x="45.5" y="-185.8" font-family="Fira Code" font-size="14.00" fill="#000000">local = 8</text>
</g>
<!-- 0&#45;&gt;1 -->
<g id="edge1" class="edge">
<title>0&#45;&gt;1</title>
<path fill="none" stroke="#000000" d="M83.2982,-266.7971C78.1723,-258.3487 72.4246,-248.8757 66.9883,-239.9159"/>
<polygon fill="#000000" stroke="#000000" points="69.87,-237.9179 61.6903,-231.1841 63.8854,-241.5491 69.87,-237.9179"/>
</g>
<!-- 2 -->
<g id="node3" class="node">
<title>2</title>
<polygon fill="none" stroke="#000000" points="200,-231 109,-231 109,-178 200,-178 200,-231"/>
<text text-anchor="middle" x="154.5" y="-215.8" font-family="Fira Code" font-size="14.00" fill="#000000">app::foo</text>
<text text-anchor="middle" x="154.5" y="-200.8" font-family="Fira Code" font-size="14.00" fill="#000000">max = 0</text>
<text text-anchor="middle" x="154.5" y="-185.8" font-family="Fira Code" font-size="14.00" fill="#000000">local = 0</text>
</g>
<!-- 0&#45;&gt;2 -->
<g id="edge2" class="edge">
<title>0&#45;&gt;2</title>
<path fill="none" stroke="#000000" d="M116.0018,-266.7971C121.2227,-258.3487 127.0768,-248.8757 132.6138,-239.9159"/>
<polygon fill="#000000" stroke="#000000" points="135.7302,-241.5308 138.0098,-231.1841 129.7755,-237.8509 135.7302,-241.5308"/>
</g>
<!-- 3 -->
<g id="node4" class="node">
<title>3</title>
<polygon fill="none" stroke="#000000" points="163,-142 72,-142 72,-89 163,-89 163,-142"/>
<text text-anchor="middle" x="117.5" y="-126.8" font-family="Fira Code" font-size="14.00" fill="#000000">app::bar</text>
<text text-anchor="middle" x="117.5" y="-111.8" font-family="Fira Code" font-size="14.00" fill="#000000">max = 0</text>
<text text-anchor="middle" x="117.5" y="-96.8" font-family="Fira Code" font-size="14.00" fill="#000000">local = 0</text>
</g>
<!-- 2&#45;&gt;3 -->
<g id="edge3" class="edge">
<title>2&#45;&gt;3</title>
<path fill="none" stroke="#000000" d="M143.3988,-177.7971C139.9597,-169.5247 136.1122,-160.27 132.4565,-151.4765"/>
<polygon fill="#000000" stroke="#000000" points="135.6641,-150.0743 128.5934,-142.1841 129.2004,-152.7615 135.6641,-150.0743"/>
</g>
<!-- 4 -->
<g id="node5" class="node">
<title>4</title>
<polygon fill="none" stroke="#000000" points="200,-53 109,-53 109,0 200,0 200,-53"/>
<text text-anchor="middle" x="154.5" y="-37.8" font-family="Fira Code" font-size="14.00" fill="#000000">app::baz</text>
<text text-anchor="middle" x="154.5" y="-22.8" font-family="Fira Code" font-size="14.00" fill="#000000">max = 0</text>
<text text-anchor="middle" x="154.5" y="-7.8" font-family="Fira Code" font-size="14.00" fill="#000000">local = 0</text>
</g>
<!-- 3&#45;&gt;4 -->
<g id="edge4" class="edge">
<title>3&#45;&gt;4</title>
<path fill="none" stroke="#000000" d="M128.6012,-88.7971C132.0403,-80.5247 135.8878,-71.27 139.5435,-62.4765"/>
<polygon fill="#000000" stroke="#000000" points="142.7996,-63.7615 143.4066,-53.1841 136.3359,-61.0743 142.7996,-63.7615"/>
</g>
<!-- 4&#45;&gt;2 -->
<g id="edge5" class="edge">
<title>4&#45;&gt;2</title>
<path fill="none" stroke="#000000" d="M163.4541,-53.2511C166.6758,-64.1986 169.907,-77.0739 171.5,-89 174.6187,-112.3482 174.6187,-118.6518 171.5,-142 170.3675,-150.4787 168.4069,-159.4372 166.2105,-167.8416"/>
<polygon fill="#000000" stroke="#000000" points="162.7626,-167.1766 163.4541,-177.7489 169.5065,-169.053 162.7626,-167.1766"/>
</g>
</g>
</svg>
