<?xml version="1.0" encoding="UTF-8" standalone="no"?>
<!DOCTYPE svg PUBLIC "-//W3C//DTD SVG 1.1//EN"
 "http://www.w3.org/Graphics/SVG/1.1/DTD/svg11.dtd">
<!-- Generated by graphviz version 2.40.1 (20161225.0304)
 -->
<!-- Title: %3 Pages: 1 -->
<svg width="624pt" height="239pt"
 viewBox="0.00 0.00 624.00 239.00" xmlns="http://www.w3.org/2000/svg" xmlns:xlink="http://www.w3.org/1999/xlink">
<g id="graph0" class="graph" transform="scale(1 1) rotate(0) translate(4 235)">
<title>%3</title>
<polygon fill="#ffffff" stroke="transparent" points="-4,4 -4,-235 620,-235 620,4 -4,4"/>
<!-- 0 -->
<g id="node1" class="node">
<title>0</title>
<polygon fill="none" stroke="#000000" points="497,-53 258,-53 258,0 497,0 497,-53"/>
<text text-anchor="middle" x="377.5" y="-37.8" font-family="Fira Code" font-size="14.00" fill="#000000">app::bar::hf20aee27da12668b</text>
<text text-anchor="middle" x="377.5" y="-22.8" font-family="Fira Code" font-size="14.00" fill="#000000">max = 16</text>
<text text-anchor="middle" x="377.5" y="-7.8" font-family="Fira Code" font-size="14.00" fill="#000000">local = 16</text>
</g>
<!-- 1 -->
<g id="node2" class="node">
<title>1</title>
<polygon fill="none" stroke="#000000" points="239,-53 0,-53 0,0 239,0 239,-53"/>
<text text-anchor="middle" x="119.5" y="-37.8" font-family="Fira Code" font-size="14.00" fill="#000000">app::foo::h4d9e6aff2e51f299</text>
<text text-anchor="middle" x="119.5" y="-22.8" font-family="Fira Code" font-size="14.00" fill="#000000">max = 8</text>
<text text-anchor="middle" x="119.5" y="-7.8" font-family="Fira Code" font-size="14.00" fill="#000000">local = 8</text>
</g>
<!-- 2 -->
<g id="node3" class="node">
<title>2</title>
<polygon fill="none" stroke="#000000" points="165,-142 74,-142 74,-89 165,-89 165,-142"/>
<text text-anchor="middle" x="119.5" y="-126.8" font-family="Fira Code" font-size="14.00" fill="#000000">main</text>
<text text-anchor="middle" x="119.5" y="-111.8" font-family="Fira Code" font-size="14.00" fill="#000000">max = 24</text>
<text text-anchor="middle" x="119.5" y="-96.8" font-family="Fira Code" font-size="14.00" fill="#000000">local = 8</text>
</g>
<!-- 2&#45;&gt;0 -->
<g id="edge2" class="edge">
<title>2&#45;&gt;0</title>
<path fill="none" stroke="#000000" d="M165.1872,-92.8524C168.3167,-91.4978 171.4412,-90.1999 174.5,-89 205.3771,-76.8875 239.6165,-65.5711 271.0438,-55.9865"/>
<polygon fill="#000000" stroke="#000000" points="272.1399,-59.3117 280.7,-53.0686 270.1151,-52.6109 272.1399,-59.3117"/>
</g>
<!-- 2&#45;&gt;1 -->
<g id="edge1" class="edge">
<title>2&#45;&gt;1</title>
<path fill="none" stroke="#000000" d="M119.5,-88.7971C119.5,-80.7887 119.5,-71.8597 119.5,-63.3198"/>
<polygon fill="#000000" stroke="#000000" points="123.0001,-63.1841 119.5,-53.1841 116.0001,-63.1841 123.0001,-63.1841"/>
</g>
<!-- 3 -->
<g id="node4" class="node">
<title>3</title>
<polygon fill="none" stroke="#000000" points="425,-142 334,-142 334,-89 425,-89 425,-142"/>
<text text-anchor="middle" x="379.5" y="-126.8" font-family="Fira Code" font-size="14.00" fill="#000000">SysTick</text>
<text text-anchor="middle" x="379.5" y="-111.8" font-family="Fira Code" font-size="14.00" fill="#000000">max = 16</text>
<text text-anchor="middle" x="379.5" y="-96.8" font-family="Fira Code" font-size="14.00" fill="#000000">local = 0</text>
</g>
<!-- 3&#45;&gt;0 -->
<g id="edge3" class="edge">
<title>3&#45;&gt;0</title>
<path fill="none" stroke="#000000" d="M378.8999,-88.7971C378.72,-80.7887 378.5193,-71.8597 378.3274,-63.3198"/>
<polygon fill="#000000" stroke="#000000" points="381.8235,-63.1029 378.0996,-53.1841 374.8253,-63.2602 381.8235,-63.1029"/>
</g>
<!-- 4 -->
<g id="node5" class="node">
<title>4</title>
<polygon fill="none" stroke="#000000" points="230,-231 139,-231 139,-178 230,-178 230,-231"/>
<text text-anchor="middle" x="184.5" y="-215.8" font-family="Fira Code" font-size="14.00" fill="#000000">Reset</text>
<text text-anchor="middle" x="184.5" y="-200.8" font-family="Fira Code" font-size="14.00" fill="#000000">max = 24</text>
<text text-anchor="middle" x="184.5" y="-185.8" font-family="Fira Code" font-size="14.00" fill="#000000">local = 0</text>
</g>
<!-- 4&#45;&gt;2 -->
<g id="edge5" class="edge">
<title>4&#45;&gt;2</title>
<path fill="none" stroke="#000000" d="M164.9979,-177.7971C158.6992,-169.1727 151.6206,-159.4806 144.9571,-150.3566"/>
<polygon fill="#000000" stroke="#000000" points="147.7128,-148.1954 138.9884,-142.1841 142.0599,-152.324 147.7128,-148.1954"/>
</g>
<!-- 7 -->
<g id="node8" class="node">
<title>7</title>
<polygon fill="none" stroke="#000000" points="315.5,-142 183.5,-142 183.5,-89 315.5,-89 315.5,-142"/>
<text text-anchor="middle" x="249.5" y="-126.8" font-family="Fira Code" font-size="14.00" fill="#000000">DefaultPreInit</text>
<text text-anchor="middle" x="249.5" y="-111.8" font-family="Fira Code" font-size="14.00" fill="#000000">max = 0</text>
<text text-anchor="middle" x="249.5" y="-96.8" font-family="Fira Code" font-size="14.00" fill="#000000">local = 0</text>
</g>
<!-- 4&#45;&gt;7 -->
<g id="edge4" class="edge">
<title>4&#45;&gt;7</title>
<path fill="none" stroke="#000000" d="M204.0021,-177.7971C210.3008,-169.1727 217.3794,-159.4806 224.0429,-150.3566"/>
<polygon fill="#000000" stroke="#000000" points="226.9401,-152.324 230.0116,-142.1841 221.2872,-148.1954 226.9401,-152.324"/>
</g>
<!-- 5 -->
<g id="node6" class="node">
<title>5</title>
<polygon fill="none" stroke="#000000" points="372.5,-231 248.5,-231 248.5,-178 372.5,-178 372.5,-231"/>
<text text-anchor="middle" x="310.5" y="-215.8" font-family="Fira Code" font-size="14.00" fill="#000000">UserHardFault</text>
<text text-anchor="middle" x="310.5" y="-200.8" font-family="Fira Code" font-size="14.00" fill="#000000">max = 0</text>
<text text-anchor="middle" x="310.5" y="-185.8" font-family="Fira Code" font-size="14.00" fill="#000000">local = 0</text>
</g>
<!-- 6 -->
<g id="node7" class="node">
<title>6</title>
<polygon fill="none" stroke="#000000" points="506.5,-231 390.5,-231 390.5,-178 506.5,-178 506.5,-231"/>
<text text-anchor="middle" x="448.5" y="-215.8" font-family="Fira Code" font-size="14.00" fill="#000000">DebugMonitor</text>
<text text-anchor="middle" x="448.5" y="-200.8" font-family="Fira Code" font-size="14.00" fill="#000000">max = 0</text>
<text text-anchor="middle" x="448.5" y="-185.8" font-family="Fira Code" font-size="14.00" fill="#000000">local = 0</text>
</g>
<!-- 8 -->
<g id="node9" class="node">
<title>8</title>
<polygon fill="none" stroke="#000000" points="616,-231 525,-231 525,-178 616,-178 616,-231"/>
<text text-anchor="middle" x="570.5" y="-215.8" font-family="Fira Code" font-size="14.00" fill="#000000">HardFault</text>
<text text-anchor="middle" x="570.5" y="-200.8" font-family="Fira Code" font-size="14.00" fill="#000000">max &gt;= 0</text>
<text text-anchor="middle" x="570.5" y="-185.8" font-family="Fira Code" font-size="14.00" fill="#000000">local = ?</text>
</g>
</g>
</svg>
