<?xml version="1.0" encoding="UTF-8" standalone="no"?>
<!DOCTYPE svg PUBLIC "-//W3C//DTD SVG 1.1//EN"
 "http://www.w3.org/Graphics/SVG/1.1/DTD/svg11.dtd">
<!-- Generated by graphviz version 2.40.1 (20161225.0304)
 -->
<!-- Title: %3 Pages: 1 -->
<svg width="1369pt" height="239pt"
 viewBox="0.00 0.00 1368.50 239.00" xmlns="http://www.w3.org/2000/svg" xmlns:xlink="http://www.w3.org/1999/xlink">
<g id="graph0" class="graph" transform="scale(1 1) rotate(0) translate(4 235)">
<title>%3</title>
<polygon fill="#ffffff" stroke="transparent" points="-4,4 -4,-235 1364.5,-235 1364.5,4 -4,4"/>
<!-- 0 -->
<g id="node1" class="node">
<title>0</title>
<polygon fill="none" stroke="#000000" points="380,-53 0,-53 0,0 380,0 380,-53"/>
<text text-anchor="middle" x="190" y="-37.8" font-family="Fira Code" font-size="14.00" fill="#000000">&lt;app::Y as app::Foo&gt;::bar::h01a53bc3a1ed627d</text>
<text text-anchor="middle" x="190" y="-22.8" font-family="Fira Code" font-size="14.00" fill="#000000">max = 16</text>
<text text-anchor="middle" x="190" y="-7.8" font-family="Fira Code" font-size="14.00" fill="#000000">local = 16</text>
</g>
<!-- 1 -->
<g id="node2" class="node">
<title>1</title>
<polygon fill="none" stroke="#000000" points="447,-142 331,-142 331,-89 447,-89 447,-142"/>
<text text-anchor="middle" x="389" y="-126.8" font-family="Fira Code" font-size="14.00" fill="#000000">dyn Foo::bar</text>
<text text-anchor="middle" x="389" y="-111.8" font-family="Fira Code" font-size="14.00" fill="#000000">max = 16</text>
<text text-anchor="middle" x="389" y="-96.8" font-family="Fira Code" font-size="14.00" fill="#000000">local = 0</text>
</g>
<!-- 1&#45;&gt;0 -->
<g id="edge1" class="edge">
<title>1&#45;&gt;0</title>
<path fill="none" stroke="#000000" d="M330.906,-89.5183C308.321,-79.4174 282.2719,-67.7673 258.7617,-57.2527"/>
<polygon fill="#000000" stroke="#000000" points="260.1051,-54.0195 249.5475,-53.1318 257.2472,-60.4095 260.1051,-54.0195"/>
</g>
<!-- 2 -->
<g id="node3" class="node">
<title>2</title>
<polygon fill="none" stroke="#000000" points="778,-53 398,-53 398,0 778,0 778,-53"/>
<text text-anchor="middle" x="588" y="-37.8" font-family="Fira Code" font-size="14.00" fill="#000000">&lt;app::X as app::Foo&gt;::bar::h98a8920946135e25</text>
<text text-anchor="middle" x="588" y="-22.8" font-family="Fira Code" font-size="14.00" fill="#000000">max = 8</text>
<text text-anchor="middle" x="588" y="-7.8" font-family="Fira Code" font-size="14.00" fill="#000000">local = 8</text>
</g>
<!-- 1&#45;&gt;2 -->
<g id="edge2" class="edge">
<title>1&#45;&gt;2</title>
<path fill="none" stroke="#000000" d="M447.094,-89.5183C469.679,-79.4174 495.7281,-67.7673 519.2383,-57.2527"/>
<polygon fill="#000000" stroke="#000000" points="520.7528,-60.4095 528.4525,-53.1318 517.8949,-54.0195 520.7528,-60.4095"/>
</g>
<!-- 3 -->
<g id="node4" class="node">
<title>3</title>
<polygon fill="none" stroke="#000000" points="865.5,-231 452.5,-231 452.5,-178 865.5,-178 865.5,-231"/>
<text text-anchor="middle" x="659" y="-215.8" font-family="Fira Code" font-size="14.00" fill="#000000">core::ptr::real_drop_in_place::h9d08583539dcab61</text>
<text text-anchor="middle" x="659" y="-200.8" font-family="Fira Code" font-size="14.00" fill="#000000">max = 0</text>
<text text-anchor="middle" x="659" y="-185.8" font-family="Fira Code" font-size="14.00" fill="#000000">local = 0</text>
</g>
<!-- 4 -->
<g id="node5" class="node">
<title>4</title>
<polygon fill="none" stroke="#000000" points="909.5,-142 818.5,-142 818.5,-89 909.5,-89 909.5,-142"/>
<text text-anchor="middle" x="864" y="-126.8" font-family="Fira Code" font-size="14.00" fill="#000000">main</text>
<text text-anchor="middle" x="864" y="-111.8" font-family="Fira Code" font-size="14.00" fill="#000000">max = 0</text>
<text text-anchor="middle" x="864" y="-96.8" font-family="Fira Code" font-size="14.00" fill="#000000">local = 0</text>
</g>
<!-- 5 -->
<g id="node6" class="node">
<title>5</title>
<polygon fill="none" stroke="#000000" points="434.5,-231 343.5,-231 343.5,-178 434.5,-178 434.5,-231"/>
<text text-anchor="middle" x="389" y="-215.8" font-family="Fira Code" font-size="14.00" fill="#000000">SysTick</text>
<text text-anchor="middle" x="389" y="-200.8" font-family="Fira Code" font-size="14.00" fill="#000000">max = 16</text>
<text text-anchor="middle" x="389" y="-185.8" font-family="Fira Code" font-size="14.00" fill="#000000">local = 0</text>
</g>
<!-- 5&#45;&gt;1 -->
<g id="edge3" class="edge">
<title>5&#45;&gt;1</title>
<path fill="none" stroke="#000000" d="M389,-177.7971C389,-169.7887 389,-160.8597 389,-152.3198"/>
<polygon fill="#000000" stroke="#000000" points="392.5001,-152.1841 389,-142.1841 385.5001,-152.1841 392.5001,-152.1841"/>
</g>
<!-- 6 -->
<g id="node7" class="node">
<title>6</title>
<polygon fill="none" stroke="#000000" points="974.5,-231 883.5,-231 883.5,-178 974.5,-178 974.5,-231"/>
<text text-anchor="middle" x="929" y="-215.8" font-family="Fira Code" font-size="14.00" fill="#000000">Reset</text>
<text text-anchor="middle" x="929" y="-200.8" font-family="Fira Code" font-size="14.00" fill="#000000">max = 0</text>
<text text-anchor="middle" x="929" y="-185.8" font-family="Fira Code" font-size="14.00" fill="#000000">local = 0</text>
</g>
<!-- 6&#45;&gt;4 -->
<g id="edge5" class="edge">
<title>6&#45;&gt;4</title>
<path fill="none" stroke="#000000" d="M909.4979,-177.7971C903.1992,-169.1727 896.1206,-159.4806 889.4571,-150.3566"/>
<polygon fill="#000000" stroke="#000000" points="892.2128,-148.1954 883.4884,-142.1841 886.5599,-152.324 892.2128,-148.1954"/>
</g>
<!-- 9 -->
<g id="node10" class="node">
<title>9</title>
<polygon fill="none" stroke="#000000" points="1060,-142 928,-142 928,-89 1060,-89 1060,-142"/>
<text text-anchor="middle" x="994" y="-126.8" font-family="Fira Code" font-size="14.00" fill="#000000">DefaultPreInit</text>
<text text-anchor="middle" x="994" y="-111.8" font-family="Fira Code" font-size="14.00" fill="#000000">max = 0</text>
<text text-anchor="middle" x="994" y="-96.8" font-family="Fira Code" font-size="14.00" fill="#000000">local = 0</text>
</g>
<!-- 6&#45;&gt;9 -->
<g id="edge4" class="edge">
<title>6&#45;&gt;9</title>
<path fill="none" stroke="#000000" d="M948.5021,-177.7971C954.8008,-169.1727 961.8794,-159.4806 968.5429,-150.3566"/>
<polygon fill="#000000" stroke="#000000" points="971.4401,-152.324 974.5116,-142.1841 965.7872,-148.1954 971.4401,-152.324"/>
</g>
<!-- 7 -->
<g id="node8" class="node">
<title>7</title>
<polygon fill="none" stroke="#000000" points="1117,-231 993,-231 993,-178 1117,-178 1117,-231"/>
<text text-anchor="middle" x="1055" y="-215.8" font-family="Fira Code" font-size="14.00" fill="#000000">UserHardFault</text>
<text text-anchor="middle" x="1055" y="-200.8" font-family="Fira Code" font-size="14.00" fill="#000000">max = 0</text>
<text text-anchor="middle" x="1055" y="-185.8" font-family="Fira Code" font-size="14.00" fill="#000000">local = 0</text>
</g>
<!-- 8 -->
<g id="node9" class="node">
<title>8</title>
<polygon fill="none" stroke="#000000" points="1251,-231 1135,-231 1135,-178 1251,-178 1251,-231"/>
<text text-anchor="middle" x="1193" y="-215.8" font-family="Fira Code" font-size="14.00" fill="#000000">DebugMonitor</text>
<text text-anchor="middle" x="1193" y="-200.8" font-family="Fira Code" font-size="14.00" fill="#000000">max = 0</text>
<text text-anchor="middle" x="1193" y="-185.8" font-family="Fira Code" font-size="14.00" fill="#000000">local = 0</text>
</g>
<!-- 10 -->
<g id="node11" class="node">
<title>10</title>
<polygon fill="none" stroke="#000000" points="1360.5,-231 1269.5,-231 1269.5,-178 1360.5,-178 1360.5,-231"/>
<text text-anchor="middle" x="1315" y="-215.8" font-family="Fira Code" font-size="14.00" fill="#000000">HardFault</text>
<text text-anchor="middle" x="1315" y="-200.8" font-family="Fira Code" font-size="14.00" fill="#000000">max &gt;= 0</text>
<text text-anchor="middle" x="1315" y="-185.8" font-family="Fira Code" font-size="14.00" fill="#000000">local = ?</text>
</g>
</g>
</svg>
