<?xml version="1.0" encoding="UTF-8" standalone="no"?>
<!DOCTYPE svg PUBLIC "-//W3C//DTD SVG 1.1//EN"
 "http://www.w3.org/Graphics/SVG/1.1/DTD/svg11.dtd">
<!-- Generated by graphviz version 2.40.1 (20161225.0304)
 -->
<!-- Title: %3 Pages: 1 -->
<svg width="216pt" height="150pt"
 viewBox="0.00 0.00 216.00 150.00" xmlns="http://www.w3.org/2000/svg" xmlns:xlink="http://www.w3.org/1999/xlink">
<g id="graph0" class="graph" transform="scale(1 1) rotate(0) translate(4 146)">
<title>%3</title>
<polygon fill="#ffffff" stroke="transparent" points="-4,4 -4,-146 212,-146 212,4 -4,4"/>
<!-- 0 -->
<g id="node1" class="node">
<title>0</title>
<polygon fill="none" stroke="#000000" points="151,-142 60,-142 60,-89 151,-89 151,-142"/>
<text text-anchor="middle" x="105.5" y="-126.8" font-family="Fira Code" font-size="14.00" fill="#000000">main</text>
<text text-anchor="middle" x="105.5" y="-111.8" font-family="Fira Code" font-size="14.00" fill="#000000">max = 16</text>
<text text-anchor="middle" x="105.5" y="-96.8" font-family="Fira Code" font-size="14.00" fill="#000000">local = 0</text>
</g>
<!-- 1 -->
<g id="node2" class="node">
<title>1</title>
<polygon fill="none" stroke="#000000" points="99,-53 0,-53 0,0 99,0 99,-53"/>
<text text-anchor="middle" x="49.5" y="-37.8" font-family="Fira Code" font-size="14.00" fill="#000000">app::bar</text>
<text text-anchor="middle" x="49.5" y="-22.8" font-family="Fira Code" font-size="14.00" fill="#000000">max = 16</text>
<text text-anchor="middle" x="49.5" y="-7.8" font-family="Fira Code" font-size="14.00" fill="#000000">local = 16</text>
</g>
<!-- 0&#45;&gt;1 -->
<g id="edge1" class="edge">
<title>0&#45;&gt;1</title>
<path fill="none" stroke="#000000" d="M88.6982,-88.7971C83.3823,-80.3487 77.4218,-70.8757 71.7842,-61.9159"/>
<polygon fill="#000000" stroke="#000000" points="74.578,-59.784 66.29,-53.1841 68.6533,-63.512 74.578,-59.784"/>
</g>
<!-- 2 -->
<g id="node3" class="node">
<title>2</title>
<polygon fill="none" stroke="#000000" points="208,-53 117,-53 117,0 208,0 208,-53"/>
<text text-anchor="middle" x="162.5" y="-37.8" font-family="Fira Code" font-size="14.00" fill="#000000">app::foo</text>
<text text-anchor="middle" x="162.5" y="-22.8" font-family="Fira Code" font-size="14.00" fill="#000000">max = 8</text>
<text text-anchor="middle" x="162.5" y="-7.8" font-family="Fira Code" font-size="14.00" fill="#000000">local = 8</text>
</g>
<!-- 0&#45;&gt;2 -->
<g id="edge2" class="edge">
<title>0&#45;&gt;2</title>
<path fill="none" stroke="#000000" d="M122.6019,-88.7971C128.069,-80.2607 134.2061,-70.6782 139.9971,-61.6361"/>
<polygon fill="#000000" stroke="#000000" points="142.9643,-63.4927 145.4102,-53.1841 137.0696,-59.7175 142.9643,-63.4927"/>
</g>
</g>
</svg>
