<?xml version="1.0" encoding="UTF-8" standalone="no"?>
<!DOCTYPE svg PUBLIC "-//W3C//DTD SVG 1.1//EN"
 "http://www.w3.org/Graphics/SVG/1.1/DTD/svg11.dtd">
<!-- Generated by graphviz version 2.40.1 (20161225.0304)
 -->
<!-- Title: %3 Pages: 1 -->
<svg width="3153pt" height="773pt"
 viewBox="0.00 0.00 3152.50 773.00" xmlns="http://www.w3.org/2000/svg" xmlns:xlink="http://www.w3.org/1999/xlink">
<g id="graph0" class="graph" transform="scale(1 1) rotate(0) translate(4 769)">
<title>%3</title>
<polygon fill="#ffffff" stroke="transparent" points="-4,4 -4,-769 3148.5,-769 3148.5,4 -4,4"/>
<!-- 0 -->
<g id="node1" class="node">
<title>0</title>
<polygon fill="none" stroke="#000000" points="2014,-498 1709,-498 1709,-445 2014,-445 2014,-498"/>
<text text-anchor="middle" x="1861.5" y="-482.8" font-family="Fira Code" font-size="14.00" fill="#000000">core::fmt::write::he9f922f763a4cbf9</text>
<text text-anchor="middle" x="1861.5" y="-467.8" font-family="Fira Code" font-size="14.00" fill="#000000">max &gt;= 136</text>
<text text-anchor="middle" x="1861.5" y="-452.8" font-family="Fira Code" font-size="14.00" fill="#000000">local = 96</text>
</g>
<!-- 8 -->
<g id="node9" class="node">
<title>8</title>
<polygon fill="none" stroke="#000000" points="1150,-409 927,-409 927,-356 1150,-356 1150,-409"/>
<text text-anchor="middle" x="1038.5" y="-393.8" font-family="Fira Code" font-size="14.00" fill="#000000">dyn fmt::Write::write_str</text>
<text text-anchor="middle" x="1038.5" y="-378.8" font-family="Fira Code" font-size="14.00" fill="#000000">max &gt;= 40</text>
<text text-anchor="middle" x="1038.5" y="-363.8" font-family="Fira Code" font-size="14.00" fill="#000000">local = 0</text>
</g>
<!-- 0&#45;&gt;8 -->
<g id="edge42" class="edge">
<title>0&#45;&gt;8</title>
<path fill="none" stroke="#000000" d="M1708.8637,-448.4746C1699.5944,-447.2027 1690.4182,-446.0271 1681.5,-445 1448.1019,-418.1192 1384.3704,-440.9386 1156.1066,-410.3073"/>
<polygon fill="#000000" stroke="#000000" points="1156.5485,-406.8353 1146.1677,-408.954 1155.604,-413.7713 1156.5485,-406.8353"/>
</g>
<!-- 0&#45;&gt;8 -->
<g id="edge44" class="edge">
<title>0&#45;&gt;8</title>
<path fill="none" stroke="#000000" d="M1708.9288,-446.1281C1705.76,-445.7355 1702.6143,-445.3587 1699.5,-445 1462.7495,-417.7331 1400.5746,-441.6044 1164.5,-409 1163.1922,-408.8194 1161.8776,-408.633 1160.5573,-408.4412"/>
<polygon fill="#000000" stroke="#000000" points="1160.7557,-404.9306 1150.34,-406.8707 1159.6922,-411.8494 1160.7557,-404.9306"/>
</g>
<!-- 0&#45;&gt;8 -->
<g id="edge50" class="edge">
<title>0&#45;&gt;8</title>
<path fill="none" stroke="#000000" d="M1717.9249,-445.049C1717.7832,-445.0326 1717.6416,-445.0163 1717.5,-445 1480.7495,-417.7331 1418.5746,-441.6044 1182.5,-409 1175.1866,-407.9899 1167.6631,-406.7994 1160.0667,-405.4918"/>
<polygon fill="#000000" stroke="#000000" points="1160.5084,-402.0156 1150.0501,-403.7108 1159.2829,-408.9075 1160.5084,-402.0156"/>
</g>
<!-- 19 -->
<g id="node20" class="node">
<title>19</title>
<polygon fill="none" stroke="#000000" points="633,-231 278,-231 278,-178 633,-178 633,-231"/>
<text text-anchor="middle" x="455.5" y="-215.8" font-family="Fira Code" font-size="14.00" fill="#000000">core::panicking::panic::h58fdea4fa7a9abc8</text>
<text text-anchor="middle" x="455.5" y="-200.8" font-family="Fira Code" font-size="14.00" fill="#000000">max = 0</text>
<text text-anchor="middle" x="455.5" y="-185.8" font-family="Fira Code" font-size="14.00" fill="#000000">local = 0</text>
</g>
<!-- 0&#45;&gt;19 -->
<g id="edge47" class="edge">
<title>0&#45;&gt;19</title>
<path fill="none" stroke="#000000" d="M1708.9143,-446.2468C1705.7499,-445.8181 1702.609,-445.4019 1699.5,-445 1532.1322,-423.3659 1486.7381,-443.298 1321.5,-409 1246.912,-393.518 1231.7249,-377.0042 1158.5,-356 1138.852,-350.3641 821.4848,-271.2913 801.5,-267 744.2139,-254.6992 681.2436,-242.8361 624.9053,-232.8117"/>
<polygon fill="#000000" stroke="#000000" points="625.2892,-229.3253 614.8318,-231.0263 624.0675,-236.2179 625.2892,-229.3253"/>
</g>
<!-- 21 -->
<g id="node22" class="node">
<title>21</title>
<polygon fill="none" stroke="#000000" points="2092.5,-409 1630.5,-409 1630.5,-356 2092.5,-356 2092.5,-409"/>
<text text-anchor="middle" x="1861.5" y="-393.8" font-family="Fira Code" font-size="14.00" fill="#000000">core::panicking::panic_bounds_check::hffc76e2550c0cff4</text>
<text text-anchor="middle" x="1861.5" y="-378.8" font-family="Fira Code" font-size="14.00" fill="#000000">max = 0</text>
<text text-anchor="middle" x="1861.5" y="-363.8" font-family="Fira Code" font-size="14.00" fill="#000000">local = 0</text>
</g>
<!-- 0&#45;&gt;21 -->
<g id="edge45" class="edge">
<title>0&#45;&gt;21</title>
<path fill="none" stroke="#000000" d="M1849.0094,-444.7971C1848.052,-436.7887 1847.7757,-427.8597 1848.1803,-419.3198"/>
<polygon fill="#000000" stroke="#000000" points="1851.6824,-419.4368 1849.0116,-409.1841 1844.7058,-418.8645 1851.6824,-419.4368"/>
</g>
<!-- 0&#45;&gt;21 -->
<g id="edge46" class="edge">
<title>0&#45;&gt;21</title>
<path fill="none" stroke="#000000" d="M1861.5,-444.7971C1861.5,-436.7887 1861.5,-427.8597 1861.5,-419.3198"/>
<polygon fill="#000000" stroke="#000000" points="1865.0001,-419.1841 1861.5,-409.1841 1858.0001,-419.1841 1865.0001,-419.1841"/>
</g>
<!-- 0&#45;&gt;21 -->
<g id="edge48" class="edge">
<title>0&#45;&gt;21</title>
<path fill="none" stroke="#000000" d="M1873.9906,-444.7971C1874.948,-436.7887 1875.2243,-427.8597 1874.8197,-419.3198"/>
<polygon fill="#000000" stroke="#000000" points="1878.2942,-418.8645 1873.9884,-409.1841 1871.3176,-419.4368 1878.2942,-418.8645"/>
</g>
<!-- 31 -->
<g id="node32" class="node">
<title>31</title>
<polygon fill="none" stroke="#000000" points="1612.5,-409 1480.5,-409 1480.5,-356 1612.5,-356 1612.5,-409"/>
<text text-anchor="middle" x="1546.5" y="-393.8" font-family="Fira Code" font-size="14.00" fill="#000000">_: fn(..) &#45;&gt; _</text>
<text text-anchor="middle" x="1546.5" y="-378.8" font-family="Fira Code" font-size="14.00" fill="#000000">max &gt;= 0</text>
<text text-anchor="middle" x="1546.5" y="-363.8" font-family="Fira Code" font-size="14.00" fill="#000000">local = ?</text>
</g>
<!-- 0&#45;&gt;31 -->
<g id="edge43" class="edge">
<title>0&#45;&gt;31</title>
<path fill="none" stroke="#000000" d="M1751.6295,-444.9749C1713.2254,-435.1922 1669.7171,-423.5386 1622.47,-409.2151"/>
<polygon fill="#000000" stroke="#000000" points="1623.2384,-405.7903 1612.6522,-406.2164 1621.1936,-412.485 1623.2384,-405.7903"/>
</g>
<!-- 32 -->
<g id="node33" class="node">
<title>32</title>
<polygon fill="none" stroke="#000000" points="1462.5,-409 1330.5,-409 1330.5,-356 1462.5,-356 1462.5,-409"/>
<text text-anchor="middle" x="1396.5" y="-393.8" font-family="Fira Code" font-size="14.00" fill="#000000">_: fn(..) &#45;&gt; _</text>
<text text-anchor="middle" x="1396.5" y="-378.8" font-family="Fira Code" font-size="14.00" fill="#000000">max &gt;= 0</text>
<text text-anchor="middle" x="1396.5" y="-363.8" font-family="Fira Code" font-size="14.00" fill="#000000">local = ?</text>
</g>
<!-- 0&#45;&gt;32 -->
<g id="edge49" class="edge">
<title>0&#45;&gt;32</title>
<path fill="none" stroke="#000000" d="M1708.8762,-446.5096C1705.7234,-446.0012 1702.5951,-445.4975 1699.5,-445 1601.3767,-429.228 1572.7233,-433.8732 1472.4807,-409.0702"/>
<polygon fill="#000000" stroke="#000000" points="1473.1029,-405.6179 1462.5515,-406.5763 1471.3977,-412.407 1473.1029,-405.6179"/>
</g>
<!-- 1 -->
<g id="node2" class="node">
<title>1</title>
<polygon fill="none" stroke="#000000" points="619,-676 0,-676 0,-623 619,-623 619,-676"/>
<text text-anchor="middle" x="309.5" y="-660.8" font-family="Fira Code" font-size="14.00" fill="#000000">core::fmt::num::&lt;impl core::fmt::Display for i32&gt;::fmt::h37a48adbf8fc1240</text>
<text text-anchor="middle" x="309.5" y="-645.8" font-family="Fira Code" font-size="14.00" fill="#000000">max &gt;= 224</text>
<text text-anchor="middle" x="309.5" y="-630.8" font-family="Fira Code" font-size="14.00" fill="#000000">local = 88</text>
</g>
<!-- 3 -->
<g id="node4" class="node">
<title>3</title>
<polygon fill="none" stroke="#000000" points="991.5,-587 537.5,-587 537.5,-534 991.5,-534 991.5,-587"/>
<text text-anchor="middle" x="764.5" y="-571.8" font-family="Fira Code" font-size="14.00" fill="#000000">core::fmt::Formatter::pad_integral::h63a00a0c08afbfb0</text>
<text text-anchor="middle" x="764.5" y="-556.8" font-family="Fira Code" font-size="14.00" fill="#000000">max &gt;= 136</text>
<text text-anchor="middle" x="764.5" y="-541.8" font-family="Fira Code" font-size="14.00" fill="#000000">local = 72</text>
</g>
<!-- 1&#45;&gt;3 -->
<g id="edge18" class="edge">
<title>1&#45;&gt;3</title>
<path fill="none" stroke="#000000" d="M445.0908,-622.9778C499.8178,-612.273 563.0749,-599.8996 618.7844,-589.0026"/>
<polygon fill="#000000" stroke="#000000" points="619.5918,-592.4111 628.7339,-587.0564 618.248,-585.5413 619.5918,-592.4111"/>
</g>
<!-- 1&#45;&gt;19 -->
<g id="edge17" class="edge">
<title>1&#45;&gt;19</title>
<path fill="none" stroke="#000000" d="M272.4559,-622.9618C255.5,-588.1785 255.5,-525.2708 255.5,-471.5 255.5,-471.5 255.5,-471.5 255.5,-382.5 255.5,-319.9961 309.9824,-267.4325 364.6932,-235.989"/>
<polygon fill="#000000" stroke="#000000" points="366.418,-239.0347 373.4676,-231.1256 363.0245,-232.9123 366.418,-239.0347"/>
</g>
<!-- 1&#45;&gt;19 -->
<g id="edge19" class="edge">
<title>1&#45;&gt;19</title>
<path fill="none" stroke="#000000" d="M284.804,-622.9618C273.5,-588.1785 273.5,-525.2708 273.5,-471.5 273.5,-471.5 273.5,-471.5 273.5,-382.5 273.5,-320.3478 327.3711,-268.0243 377.7354,-236.5217"/>
<polygon fill="#000000" stroke="#000000" points="379.6829,-239.4343 386.43,-231.2655 376.0615,-233.4438 379.6829,-239.4343"/>
</g>
<!-- 1&#45;&gt;19 -->
<g id="edge20" class="edge">
<title>1&#45;&gt;19</title>
<path fill="none" stroke="#000000" d="M297.152,-622.9618C291.5,-588.1785 291.5,-525.2708 291.5,-471.5 291.5,-471.5 291.5,-471.5 291.5,-382.5 291.5,-320.6046 344.9268,-268.4569 391.1263,-236.9133"/>
<polygon fill="#000000" stroke="#000000" points="393.2493,-239.7053 399.6541,-231.2655 389.3842,-233.8691 393.2493,-239.7053"/>
</g>
<!-- 1&#45;&gt;19 -->
<g id="edge21" class="edge">
<title>1&#45;&gt;19</title>
<path fill="none" stroke="#000000" d="M309.5,-622.9618C309.5,-588.1785 309.5,-525.2708 309.5,-471.5 309.5,-471.5 309.5,-471.5 309.5,-382.5 309.5,-320.8614 362.4843,-268.8898 404.6156,-237.3071"/>
<polygon fill="#000000" stroke="#000000" points="406.8718,-239.9932 412.8783,-231.2655 402.7401,-234.3426 406.8718,-239.9932"/>
</g>
<!-- 1&#45;&gt;19 -->
<g id="edge22" class="edge">
<title>1&#45;&gt;19</title>
<path fill="none" stroke="#000000" d="M321.848,-622.9618C327.5,-588.1785 327.5,-525.2708 327.5,-471.5 327.5,-471.5 327.5,-471.5 327.5,-382.5 327.5,-321.1182 380.0437,-269.3231 418.2022,-237.7029"/>
<polygon fill="#000000" stroke="#000000" points="420.561,-240.2957 426.1024,-231.2655 416.1392,-234.8691 420.561,-240.2957"/>
</g>
<!-- 1&#45;&gt;19 -->
<g id="edge23" class="edge">
<title>1&#45;&gt;19</title>
<path fill="none" stroke="#000000" d="M334.196,-622.9618C345.5,-588.1785 345.5,-525.2708 345.5,-471.5 345.5,-471.5 345.5,-471.5 345.5,-382.5 345.5,-321.3751 397.6049,-269.7567 431.8849,-238.1009"/>
<polygon fill="#000000" stroke="#000000" points="434.3295,-240.6079 439.3266,-231.2655 429.5942,-235.4526 434.3295,-240.6079"/>
</g>
<!-- 1&#45;&gt;19 -->
<g id="edge24" class="edge">
<title>1&#45;&gt;19</title>
<path fill="none" stroke="#000000" d="M346.5441,-622.9618C363.5,-588.1785 363.5,-525.2708 363.5,-471.5 363.5,-471.5 363.5,-471.5 363.5,-382.5 363.5,-321.8887 414.7329,-270.6249 445.2753,-238.9031"/>
<polygon fill="#000000" stroke="#000000" points="448.1876,-240.9203 452.5507,-231.2655 443.1191,-236.0921 448.1876,-240.9203"/>
</g>
<!-- 2 -->
<g id="node3" class="node">
<title>2</title>
<polygon fill="none" stroke="#000000" points="1272,-676 637,-676 637,-623 1272,-623 1272,-676"/>
<text text-anchor="middle" x="954.5" y="-660.8" font-family="Fira Code" font-size="14.00" fill="#000000">core::fmt::num::&lt;impl core::fmt::Display for usize&gt;::fmt::h4f381aa6264b686d</text>
<text text-anchor="middle" x="954.5" y="-645.8" font-family="Fira Code" font-size="14.00" fill="#000000">max &gt;= 216</text>
<text text-anchor="middle" x="954.5" y="-630.8" font-family="Fira Code" font-size="14.00" fill="#000000">local = 80</text>
</g>
<!-- 2&#45;&gt;3 -->
<g id="edge38" class="edge">
<title>2&#45;&gt;3</title>
<path fill="none" stroke="#000000" d="M897.7511,-622.9176C876.6058,-613.0127 852.4252,-601.686 830.5185,-591.4244"/>
<polygon fill="#000000" stroke="#000000" points="831.825,-588.1715 821.2846,-587.0991 828.8556,-594.5106 831.825,-588.1715"/>
</g>
<!-- 2&#45;&gt;19 -->
<g id="edge31" class="edge">
<title>2&#45;&gt;19</title>
<path fill="none" stroke="#000000" d="M636.8449,-628.3338C565.7703,-618.9381 503.1725,-605.6387 474.5,-587 423.5852,-553.9026 401.5,-532.2269 401.5,-471.5 401.5,-471.5 401.5,-471.5 401.5,-382.5 401.5,-333.3501 401.5,-276.5663 414.4494,-240.6052"/>
<polygon fill="#000000" stroke="#000000" points="417.8214,-241.614 418.4559,-231.0382 411.3647,-238.91 417.8214,-241.614"/>
</g>
<!-- 2&#45;&gt;19 -->
<g id="edge32" class="edge">
<title>2&#45;&gt;19</title>
<path fill="none" stroke="#000000" d="M636.9165,-625.9439C573.7363,-616.722 518.8223,-604.111 492.5,-587 441.5852,-553.9026 419.5,-532.2269 419.5,-471.5 419.5,-471.5 419.5,-471.5 419.5,-382.5 419.5,-333.5601 419.5,-277.0515 428.0227,-241.0674"/>
<polygon fill="#000000" stroke="#000000" points="431.5043,-241.6098 430.804,-231.0382 424.7589,-239.7392 431.5043,-241.6098"/>
</g>
<!-- 2&#45;&gt;19 -->
<g id="edge33" class="edge">
<title>2&#45;&gt;19</title>
<path fill="none" stroke="#000000" d="M636.9085,-623.2599C581.6912,-614.3179 534.3546,-602.5068 510.5,-587 459.5852,-553.9026 437.5,-532.2269 437.5,-471.5 437.5,-471.5 437.5,-471.5 437.5,-382.5 437.5,-333.5601 437.5,-277.0515 441.7614,-241.0674"/>
<polygon fill="#000000" stroke="#000000" points="445.2453,-241.4241 443.152,-231.0382 438.3116,-240.4627 445.2453,-241.4241"/>
</g>
<!-- 2&#45;&gt;19 -->
<g id="edge34" class="edge">
<title>2&#45;&gt;19</title>
<path fill="none" stroke="#000000" d="M652.8193,-622.9948C598.7608,-614.0848 552.1196,-602.354 528.5,-587 477.5852,-553.9026 455.5,-532.2269 455.5,-471.5 455.5,-471.5 455.5,-471.5 455.5,-382.5 455.5,-333.5601 455.5,-277.0515 455.5,-241.0674"/>
<polygon fill="#000000" stroke="#000000" points="459.0001,-241.0381 455.5,-231.0382 452.0001,-241.0382 459.0001,-241.0381"/>
</g>
<!-- 2&#45;&gt;19 -->
<g id="edge35" class="edge">
<title>2&#45;&gt;19</title>
<path fill="none" stroke="#000000" d="M670.3599,-622.9948C616.7608,-614.0848 570.1196,-602.354 546.5,-587 495.5852,-553.9026 473.5,-532.2269 473.5,-471.5 473.5,-471.5 473.5,-471.5 473.5,-382.5 473.5,-333.5601 473.5,-277.0515 469.2386,-241.0674"/>
<polygon fill="#000000" stroke="#000000" points="472.6884,-240.4627 467.848,-231.0382 465.7547,-241.4241 472.6884,-240.4627"/>
</g>
<!-- 2&#45;&gt;19 -->
<g id="edge36" class="edge">
<title>2&#45;&gt;19</title>
<path fill="none" stroke="#000000" d="M687.9004,-622.9948C634.7608,-614.0848 588.1196,-602.354 564.5,-587 513.5852,-553.9026 491.5,-532.2269 491.5,-471.5 491.5,-471.5 491.5,-471.5 491.5,-382.5 491.5,-333.5601 491.5,-277.0515 482.9773,-241.0674"/>
<polygon fill="#000000" stroke="#000000" points="486.2411,-239.7392 480.196,-231.0382 479.4957,-241.6098 486.2411,-239.7392"/>
</g>
<!-- 2&#45;&gt;19 -->
<g id="edge37" class="edge">
<title>2&#45;&gt;19</title>
<path fill="none" stroke="#000000" d="M705.441,-622.9948C652.7608,-614.0848 606.1196,-602.354 582.5,-587 531.5852,-553.9026 509.5,-532.2269 509.5,-471.5 509.5,-471.5 509.5,-471.5 509.5,-382.5 509.5,-333.3501 509.5,-276.5663 496.5506,-240.6052"/>
<polygon fill="#000000" stroke="#000000" points="499.6353,-238.91 492.5441,-231.0382 493.1786,-241.614 499.6353,-238.91"/>
</g>
<!-- 25 -->
<g id="node26" class="node">
<title>25</title>
<polygon fill="none" stroke="#000000" points="1741.5,-587 1609.5,-587 1609.5,-534 1741.5,-534 1741.5,-587"/>
<text text-anchor="middle" x="1675.5" y="-571.8" font-family="Fira Code" font-size="14.00" fill="#000000">_: fn(..) &#45;&gt; _</text>
<text text-anchor="middle" x="1675.5" y="-556.8" font-family="Fira Code" font-size="14.00" fill="#000000">max &gt;= 0</text>
<text text-anchor="middle" x="1675.5" y="-541.8" font-family="Fira Code" font-size="14.00" fill="#000000">local = ?</text>
</g>
<!-- 2&#45;&gt;25 -->
<g id="edge25" class="edge">
<title>2&#45;&gt;25</title>
<path fill="none" stroke="#000000" d="M1272.342,-634.1965C1374.5609,-625.3066 1488.0322,-611.2524 1599.0446,-587.121"/>
<polygon fill="#000000" stroke="#000000" points="1600.0761,-590.4778 1609.089,-584.9084 1598.5701,-583.6417 1600.0761,-590.4778"/>
</g>
<!-- 26 -->
<g id="node27" class="node">
<title>26</title>
<polygon fill="none" stroke="#000000" points="1891.5,-587 1759.5,-587 1759.5,-534 1891.5,-534 1891.5,-587"/>
<text text-anchor="middle" x="1825.5" y="-571.8" font-family="Fira Code" font-size="14.00" fill="#000000">_: fn(..) &#45;&gt; _</text>
<text text-anchor="middle" x="1825.5" y="-556.8" font-family="Fira Code" font-size="14.00" fill="#000000">max &gt;= 0</text>
<text text-anchor="middle" x="1825.5" y="-541.8" font-family="Fira Code" font-size="14.00" fill="#000000">local = ?</text>
</g>
<!-- 2&#45;&gt;26 -->
<g id="edge26" class="edge">
<title>2&#45;&gt;26</title>
<path fill="none" stroke="#000000" d="M1272.1441,-632.9964C1447.3216,-622.2866 1647.8318,-606.9629 1749.3005,-586.9845"/>
<polygon fill="#000000" stroke="#000000" points="1750.0106,-590.4118 1759.103,-584.9732 1748.6036,-583.5546 1750.0106,-590.4118"/>
</g>
<!-- 27 -->
<g id="node28" class="node">
<title>27</title>
<polygon fill="none" stroke="#000000" points="1141.5,-587 1009.5,-587 1009.5,-534 1141.5,-534 1141.5,-587"/>
<text text-anchor="middle" x="1075.5" y="-571.8" font-family="Fira Code" font-size="14.00" fill="#000000">_: fn(..) &#45;&gt; _</text>
<text text-anchor="middle" x="1075.5" y="-556.8" font-family="Fira Code" font-size="14.00" fill="#000000">max &gt;= 0</text>
<text text-anchor="middle" x="1075.5" y="-541.8" font-family="Fira Code" font-size="14.00" fill="#000000">local = ?</text>
</g>
<!-- 2&#45;&gt;27 -->
<g id="edge27" class="edge">
<title>2&#45;&gt;27</title>
<path fill="none" stroke="#000000" d="M990.804,-622.7971C1003.4864,-613.4687 1017.8672,-602.8911 1031.1319,-593.1344"/>
<polygon fill="#000000" stroke="#000000" points="1033.2399,-595.9288 1039.2216,-587.1841 1029.0922,-590.2898 1033.2399,-595.9288"/>
</g>
<!-- 28 -->
<g id="node29" class="node">
<title>28</title>
<polygon fill="none" stroke="#000000" points="1291.5,-587 1159.5,-587 1159.5,-534 1291.5,-534 1291.5,-587"/>
<text text-anchor="middle" x="1225.5" y="-571.8" font-family="Fira Code" font-size="14.00" fill="#000000">_: fn(..) &#45;&gt; _</text>
<text text-anchor="middle" x="1225.5" y="-556.8" font-family="Fira Code" font-size="14.00" fill="#000000">max &gt;= 0</text>
<text text-anchor="middle" x="1225.5" y="-541.8" font-family="Fira Code" font-size="14.00" fill="#000000">local = ?</text>
</g>
<!-- 2&#45;&gt;28 -->
<g id="edge28" class="edge">
<title>2&#45;&gt;28</title>
<path fill="none" stroke="#000000" d="M1039.5853,-622.9991C1071.5968,-612.8765 1108.4961,-601.0286 1149.6028,-587.2708"/>
<polygon fill="#000000" stroke="#000000" points="1150.9186,-590.5211 1159.2851,-584.021 1148.6911,-583.885 1150.9186,-590.5211"/>
</g>
<!-- 29 -->
<g id="node30" class="node">
<title>29</title>
<polygon fill="none" stroke="#000000" points="1441.5,-587 1309.5,-587 1309.5,-534 1441.5,-534 1441.5,-587"/>
<text text-anchor="middle" x="1375.5" y="-571.8" font-family="Fira Code" font-size="14.00" fill="#000000">_: fn(..) &#45;&gt; _</text>
<text text-anchor="middle" x="1375.5" y="-556.8" font-family="Fira Code" font-size="14.00" fill="#000000">max &gt;= 0</text>
<text text-anchor="middle" x="1375.5" y="-541.8" font-family="Fira Code" font-size="14.00" fill="#000000">local = ?</text>
</g>
<!-- 2&#45;&gt;29 -->
<g id="edge29" class="edge">
<title>2&#45;&gt;29</title>
<path fill="none" stroke="#000000" d="M1132.6168,-622.9769C1184.0524,-613.8864 1240.2415,-602.5799 1299.502,-587.1164"/>
<polygon fill="#000000" stroke="#000000" points="1300.6527,-590.4326 1309.4273,-584.4949 1298.8651,-583.6647 1300.6527,-590.4326"/>
</g>
<!-- 30 -->
<g id="node31" class="node">
<title>30</title>
<polygon fill="none" stroke="#000000" points="1591.5,-587 1459.5,-587 1459.5,-534 1591.5,-534 1591.5,-587"/>
<text text-anchor="middle" x="1525.5" y="-571.8" font-family="Fira Code" font-size="14.00" fill="#000000">_: fn(..) &#45;&gt; _</text>
<text text-anchor="middle" x="1525.5" y="-556.8" font-family="Fira Code" font-size="14.00" fill="#000000">max &gt;= 0</text>
<text text-anchor="middle" x="1525.5" y="-541.8" font-family="Fira Code" font-size="14.00" fill="#000000">local = ?</text>
</g>
<!-- 2&#45;&gt;30 -->
<g id="edge30" class="edge">
<title>2&#45;&gt;30</title>
<path fill="none" stroke="#000000" d="M1248.8013,-622.9712C1312.6024,-614.4356 1379.5826,-603.3468 1449.5799,-587.0294"/>
<polygon fill="#000000" stroke="#000000" points="1450.549,-590.3968 1459.4768,-584.6919 1448.94,-583.5843 1450.549,-590.3968"/>
</g>
<!-- 3&#45;&gt;8 -->
<g id="edge55" class="edge">
<title>3&#45;&gt;8</title>
<path fill="none" stroke="#000000" d="M824.4792,-533.9499C847.7419,-525.0734 872.6015,-513.3678 893.5,-498 922.4747,-476.6933 945.106,-442.0353 970.9317,-416.2348"/>
<polygon fill="#000000" stroke="#000000" points="973.4797,-418.6415 978.3085,-409.2111 968.6527,-413.5719 973.4797,-418.6415"/>
</g>
<!-- 3&#45;&gt;8 -->
<g id="edge56" class="edge">
<title>3&#45;&gt;8</title>
<path fill="none" stroke="#000000" d="M842.0445,-533.9499C865.7419,-525.0734 890.6015,-513.3678 911.5,-498 940.2271,-476.8754 962.7187,-442.6268 984.9994,-416.8983"/>
<polygon fill="#000000" stroke="#000000" points="987.8286,-418.9866 991.914,-409.2111 982.6242,-414.3053 987.8286,-418.9866"/>
</g>
<!-- 3&#45;&gt;8 -->
<g id="edge58" class="edge">
<title>3&#45;&gt;8</title>
<path fill="none" stroke="#000000" d="M859.6097,-533.9499C883.7419,-525.0734 908.6015,-513.3678 929.5,-498 958.1033,-476.9665 980.5247,-442.9218 999.4825,-417.2315"/>
<polygon fill="#000000" stroke="#000000" points="1002.302,-419.3056 1005.5194,-409.2111 996.7092,-415.0959 1002.302,-419.3056"/>
</g>
<!-- 3&#45;&gt;8 -->
<g id="edge59" class="edge">
<title>3&#45;&gt;8</title>
<path fill="none" stroke="#000000" d="M877.175,-533.9499C901.7419,-525.0734 926.6015,-513.3678 947.5,-498 975.8556,-477.1486 998.136,-443.5103 1013.8438,-417.9006"/>
<polygon fill="#000000" stroke="#000000" points="1016.9222,-419.5744 1019.1249,-409.2111 1010.9403,-415.9389 1016.9222,-419.5744"/>
</g>
<!-- 3&#45;&gt;8 -->
<g id="edge60" class="edge">
<title>3&#45;&gt;8</title>
<path fill="none" stroke="#000000" d="M894.7402,-533.9499C919.7419,-525.0734 944.6015,-513.3678 965.5,-498 993.608,-477.3307 1015.7463,-444.0969 1028.3669,-418.5734"/>
<polygon fill="#000000" stroke="#000000" points="1031.6783,-419.7535 1032.7304,-409.2111 1025.3335,-416.7964 1031.6783,-419.7535"/>
</g>
<!-- 3&#45;&gt;8 -->
<g id="edge64" class="edge">
<title>3&#45;&gt;8</title>
<path fill="none" stroke="#000000" d="M912.3054,-533.9499C937.7419,-525.0734 962.6015,-513.3678 983.5,-498 1011.4842,-477.4218 1033.5512,-444.3895 1043.176,-418.9112"/>
<polygon fill="#000000" stroke="#000000" points="1046.5663,-419.8034 1046.3358,-409.2111 1039.9105,-417.6352 1046.5663,-419.8034"/>
</g>
<!-- 3&#45;&gt;8 -->
<g id="edge65" class="edge">
<title>3&#45;&gt;8</title>
<path fill="none" stroke="#000000" d="M929.8707,-533.9499C955.7419,-525.0734 980.6015,-513.3678 1001.5,-498 1029.3603,-477.5128 1051.3558,-444.6816 1058.0639,-419.2498"/>
<polygon fill="#000000" stroke="#000000" points="1061.5433,-419.6841 1059.9413,-409.2111 1054.6626,-418.3972 1061.5433,-419.6841"/>
</g>
<!-- 3&#45;&gt;8 -->
<g id="edge66" class="edge">
<title>3&#45;&gt;8</title>
<path fill="none" stroke="#000000" d="M947.4359,-533.9499C973.7419,-525.0734 998.6015,-513.3678 1019.5,-498 1047.3603,-477.5128 1069.3558,-444.6816 1073.0803,-419.2498"/>
<polygon fill="#000000" stroke="#000000" points="1076.5787,-419.3628 1073.5468,-409.2111 1069.5862,-419.0378 1076.5787,-419.3628"/>
</g>
<!-- 11 -->
<g id="node12" class="node">
<title>11</title>
<polygon fill="none" stroke="#000000" points="1691,-498 1130,-498 1130,-445 1691,-445 1691,-498"/>
<text text-anchor="middle" x="1410.5" y="-482.8" font-family="Fira Code" font-size="14.00" fill="#000000">core::fmt::Formatter::pad_integral::{{closure}}::h47a6484842a332c8</text>
<text text-anchor="middle" x="1410.5" y="-467.8" font-family="Fira Code" font-size="14.00" fill="#000000">max &gt;= 64</text>
<text text-anchor="middle" x="1410.5" y="-452.8" font-family="Fira Code" font-size="14.00" fill="#000000">local = 24</text>
</g>
<!-- 3&#45;&gt;11 -->
<g id="edge52" class="edge">
<title>3&#45;&gt;11</title>
<path fill="none" stroke="#000000" d="M938.3058,-533.9778C1015.5614,-523.0612 1107.3164,-510.4094 1189.3625,-499.3576"/>
<polygon fill="#000000" stroke="#000000" points="1189.8745,-502.8204 1199.3184,-498.018 1188.9409,-495.8829 1189.8745,-502.8204"/>
</g>
<!-- 3&#45;&gt;11 -->
<g id="edge53" class="edge">
<title>3&#45;&gt;11</title>
<path fill="none" stroke="#000000" d="M950.7747,-533.9778C1029.1919,-523.0834 1120.7849,-510.4608 1201.4928,-499.425"/>
<polygon fill="#000000" stroke="#000000" points="1202.3529,-502.8401 1211.7868,-498.018 1201.4049,-495.9046 1202.3529,-502.8401"/>
</g>
<!-- 3&#45;&gt;11 -->
<g id="edge54" class="edge">
<title>3&#45;&gt;11</title>
<path fill="none" stroke="#000000" d="M963.2436,-533.9778C1042.9793,-523.0834 1134.6263,-510.4608 1214.1235,-499.425"/>
<polygon fill="#000000" stroke="#000000" points="1214.8317,-502.8604 1224.2551,-498.018 1213.8687,-495.9269 1214.8317,-502.8604"/>
</g>
<!-- 3&#45;&gt;11 -->
<g id="edge63" class="edge">
<title>3&#45;&gt;11</title>
<path fill="none" stroke="#000000" d="M975.7125,-533.9778C1056.7668,-523.0834 1148.4677,-510.4608 1226.7541,-499.425"/>
<polygon fill="#000000" stroke="#000000" points="1227.3108,-502.8813 1236.7235,-498.018 1226.3325,-495.9499 1227.3108,-502.8813"/>
</g>
<!-- 3&#45;&gt;19 -->
<g id="edge61" class="edge">
<title>3&#45;&gt;19</title>
<path fill="none" stroke="#000000" d="M710.1989,-533.9185C683.5302,-510.2232 657.4989,-474.7848 633.5,-445 567.6831,-363.3154 551.6742,-342.165 478.5,-267 469.33,-257.5806 459.0593,-247.7842 450.8114,-238.8185"/>
<polygon fill="#000000" stroke="#000000" points="453.3693,-236.4263 444.1624,-231.1837 448.0904,-241.0235 453.3693,-236.4263"/>
</g>
<!-- 3&#45;&gt;19 -->
<g id="edge67" class="edge">
<title>3&#45;&gt;19</title>
<path fill="none" stroke="#000000" d="M724.3563,-533.9185C701.5302,-510.2232 675.4989,-474.7848 651.5,-445 585.6831,-363.3154 569.6742,-342.165 496.5,-267 487.2374,-257.4854 476.8517,-247.5863 467.9528,-238.5471"/>
<polygon fill="#000000" stroke="#000000" points="470.3346,-235.9742 460.8846,-231.1837 465.2846,-240.8217 470.3346,-235.9742"/>
</g>
<!-- 3&#45;&gt;19 -->
<g id="edge68" class="edge">
<title>3&#45;&gt;19</title>
<path fill="none" stroke="#000000" d="M738.5136,-533.9185C719.5302,-510.2232 693.4989,-474.7848 669.5,-445 603.6831,-363.3154 587.6742,-342.165 514.5,-267 505.1448,-257.3903 494.6439,-247.3883 485.0585,-238.2761"/>
<polygon fill="#000000" stroke="#000000" points="487.2633,-235.5428 477.6068,-231.1837 482.4373,-240.6133 487.2633,-235.5428"/>
</g>
<!-- 3&#45;&gt;19 -->
<g id="edge69" class="edge">
<title>3&#45;&gt;19</title>
<path fill="none" stroke="#000000" d="M752.671,-533.9185C737.5302,-510.2232 711.4989,-474.7848 687.5,-445 621.6831,-363.3154 605.6742,-342.165 532.5,-267 523.0522,-257.2951 512.4358,-247.1902 502.1274,-238.0057"/>
<polygon fill="#000000" stroke="#000000" points="504.16,-235.1336 494.329,-231.1837 499.551,-240.4022 504.16,-235.1336"/>
</g>
<!-- 3&#45;&gt;19 -->
<g id="edge70" class="edge">
<title>3&#45;&gt;19</title>
<path fill="none" stroke="#000000" d="M766.8284,-533.9185C755.5302,-510.2232 729.4989,-474.7848 705.5,-445 639.6831,-363.3154 623.6742,-342.165 550.5,-267 540.8669,-257.1048 530.0191,-246.7938 518.836,-237.4666"/>
<polygon fill="#000000" stroke="#000000" points="521.0311,-234.7405 511.0512,-231.1837 516.6348,-240.1878 521.0311,-234.7405"/>
</g>
<!-- 3&#45;&gt;19 -->
<g id="edge71" class="edge">
<title>3&#45;&gt;19</title>
<path fill="none" stroke="#000000" d="M780.9858,-533.9185C773.5302,-510.2232 747.4989,-474.7848 723.5,-445 657.6831,-363.3154 641.6742,-342.165 568.5,-267 558.7743,-257.0097 547.8103,-246.5954 535.808,-237.1978"/>
<polygon fill="#000000" stroke="#000000" points="537.8764,-234.3741 527.7733,-231.1837 533.6817,-239.9781 537.8764,-234.3741"/>
</g>
<!-- 33 -->
<g id="node34" class="node">
<title>33</title>
<polygon fill="none" stroke="#000000" points="669.5,-498 537.5,-498 537.5,-445 669.5,-445 669.5,-498"/>
<text text-anchor="middle" x="603.5" y="-482.8" font-family="Fira Code" font-size="14.00" fill="#000000">_: fn(..) &#45;&gt; _</text>
<text text-anchor="middle" x="603.5" y="-467.8" font-family="Fira Code" font-size="14.00" fill="#000000">max &gt;= 0</text>
<text text-anchor="middle" x="603.5" y="-452.8" font-family="Fira Code" font-size="14.00" fill="#000000">local = ?</text>
</g>
<!-- 3&#45;&gt;33 -->
<g id="edge57" class="edge">
<title>3&#45;&gt;33</title>
<path fill="none" stroke="#000000" d="M716.1947,-533.7971C698.6033,-524.0727 678.5562,-512.9907 660.2957,-502.8964"/>
<polygon fill="#000000" stroke="#000000" points="661.9387,-499.8055 651.4936,-498.0306 658.5521,-505.9318 661.9387,-499.8055"/>
</g>
<!-- 34 -->
<g id="node35" class="node">
<title>34</title>
<polygon fill="none" stroke="#000000" points="947.5,-498 815.5,-498 815.5,-445 947.5,-445 947.5,-498"/>
<text text-anchor="middle" x="881.5" y="-482.8" font-family="Fira Code" font-size="14.00" fill="#000000">_: fn(..) &#45;&gt; _</text>
<text text-anchor="middle" x="881.5" y="-467.8" font-family="Fira Code" font-size="14.00" fill="#000000">max &gt;= 0</text>
<text text-anchor="middle" x="881.5" y="-452.8" font-family="Fira Code" font-size="14.00" fill="#000000">local = ?</text>
</g>
<!-- 3&#45;&gt;34 -->
<g id="edge62" class="edge">
<title>3&#45;&gt;34</title>
<path fill="none" stroke="#000000" d="M799.6039,-533.7971C811.7513,-524.5567 825.5102,-514.0905 838.2353,-504.4107"/>
<polygon fill="#000000" stroke="#000000" points="840.5809,-507.0241 846.4209,-498.1841 836.3429,-501.4528 840.5809,-507.0241"/>
</g>
<!-- 4 -->
<g id="node5" class="node">
<title>4</title>
<polygon fill="none" stroke="#000000" points="2709.5,-587 1909.5,-587 1909.5,-534 2709.5,-534 2709.5,-587"/>
<text text-anchor="middle" x="2309.5" y="-571.8" font-family="Fira Code" font-size="14.00" fill="#000000">&lt;core::fmt::Write::write_fmt::Adapter&lt;&#39;_, T&gt; as core::fmt::Write&gt;::write_fmt::h625b42df468abb25</text>
<text text-anchor="middle" x="2309.5" y="-556.8" font-family="Fira Code" font-size="14.00" fill="#000000">max &gt;= 184</text>
<text text-anchor="middle" x="2309.5" y="-541.8" font-family="Fira Code" font-size="14.00" fill="#000000">local = 48</text>
</g>
<!-- 4&#45;&gt;0 -->
<g id="edge14" class="edge">
<title>4&#45;&gt;0</title>
<path fill="none" stroke="#000000" d="M2175.9952,-533.9778C2122.2217,-523.2952 2060.0841,-510.9509 2005.3146,-500.0703"/>
<polygon fill="#000000" stroke="#000000" points="2005.6677,-496.5721 1995.1774,-498.0564 2004.3037,-503.438 2005.6677,-496.5721"/>
</g>
<!-- 5 -->
<g id="node6" class="node">
<title>5</title>
<polygon fill="none" stroke="#000000" points="2421,-676 2198,-676 2198,-623 2421,-623 2421,-676"/>
<text text-anchor="middle" x="2309.5" y="-660.8" font-family="Fira Code" font-size="14.00" fill="#000000">dyn fmt::Write::write_fmt</text>
<text text-anchor="middle" x="2309.5" y="-645.8" font-family="Fira Code" font-size="14.00" fill="#000000">max &gt;= 184</text>
<text text-anchor="middle" x="2309.5" y="-630.8" font-family="Fira Code" font-size="14.00" fill="#000000">local = 0</text>
</g>
<!-- 5&#45;&gt;4 -->
<g id="edge1" class="edge">
<title>5&#45;&gt;4</title>
<path fill="none" stroke="#000000" d="M2309.5,-622.7971C2309.5,-614.7887 2309.5,-605.8597 2309.5,-597.3198"/>
<polygon fill="#000000" stroke="#000000" points="2313.0001,-597.1841 2309.5,-587.1841 2306.0001,-597.1841 2313.0001,-597.1841"/>
</g>
<!-- 6 -->
<g id="node7" class="node">
<title>6</title>
<polygon fill="none" stroke="#000000" points="2977,-587 2878,-587 2878,-534 2977,-534 2977,-587"/>
<text text-anchor="middle" x="2927.5" y="-571.8" font-family="Fira Code" font-size="14.00" fill="#000000">main</text>
<text text-anchor="middle" x="2927.5" y="-556.8" font-family="Fira Code" font-size="14.00" fill="#000000">max &gt;= 176</text>
<text text-anchor="middle" x="2927.5" y="-541.8" font-family="Fira Code" font-size="14.00" fill="#000000">local = 40</text>
</g>
<!-- 6&#45;&gt;0 -->
<g id="edge6" class="edge">
<title>6&#45;&gt;0</title>
<path fill="none" stroke="#000000" d="M2877.7267,-536.6752C2874.6429,-535.6595 2871.5524,-534.7537 2868.5,-534 2713.321,-495.6849 2267.6069,-480.2353 2024.4725,-474.5223"/>
<polygon fill="#000000" stroke="#000000" points="2024.2011,-471.0151 2014.1226,-474.2821 2024.0386,-478.0133 2024.2011,-471.0151"/>
</g>
<!-- 12 -->
<g id="node13" class="node">
<title>12</title>
<polygon fill="none" stroke="#000000" points="3144.5,-320 2748.5,-320 2748.5,-267 3144.5,-267 3144.5,-320"/>
<text text-anchor="middle" x="2946.5" y="-304.8" font-family="Fira Code" font-size="14.00" fill="#000000">core::result::unwrap_failed::hda6aa0716ab407e0</text>
<text text-anchor="middle" x="2946.5" y="-289.8" font-family="Fira Code" font-size="14.00" fill="#000000">max = 0</text>
<text text-anchor="middle" x="2946.5" y="-274.8" font-family="Fira Code" font-size="14.00" fill="#000000">local = 0</text>
</g>
<!-- 6&#45;&gt;12 -->
<g id="edge7" class="edge">
<title>6&#45;&gt;12</title>
<path fill="none" stroke="#000000" d="M2929.3913,-533.9229C2932.7968,-486.0667 2939.9668,-385.3082 2943.8562,-330.6529"/>
<polygon fill="#000000" stroke="#000000" points="2947.3695,-330.5891 2944.5882,-320.3659 2940.3871,-330.0922 2947.3695,-330.5891"/>
</g>
<!-- 23 -->
<g id="node24" class="node">
<title>23</title>
<polygon fill="none" stroke="#000000" points="2333,-231 2242,-231 2242,-178 2333,-178 2333,-231"/>
<text text-anchor="middle" x="2287.5" y="-215.8" font-family="Fira Code" font-size="14.00" fill="#000000">__syscall</text>
<text text-anchor="middle" x="2287.5" y="-200.8" font-family="Fira Code" font-size="14.00" fill="#000000">max &gt;= 0</text>
<text text-anchor="middle" x="2287.5" y="-185.8" font-family="Fira Code" font-size="14.00" fill="#000000">local = ?</text>
</g>
<!-- 6&#45;&gt;23 -->
<g id="edge5" class="edge">
<title>6&#45;&gt;23</title>
<path fill="none" stroke="#000000" d="M2906.0966,-533.648C2870.9339,-489.4168 2798.9117,-398.3255 2739.5,-320 2721.8258,-296.6992 2725.9143,-281.4714 2700.5,-267 2562.5039,-188.422 2495.4856,-274.179 2342.9491,-232.4003"/>
<polygon fill="#000000" stroke="#000000" points="2343.8324,-229.0124 2333.2542,-229.6057 2341.8935,-235.7386 2343.8324,-229.0124"/>
</g>
<!-- 7 -->
<g id="node8" class="node">
<title>7</title>
<polygon fill="none" stroke="#000000" points="1826.5,-320 1026.5,-320 1026.5,-267 1826.5,-267 1826.5,-320"/>
<text text-anchor="middle" x="1426.5" y="-304.8" font-family="Fira Code" font-size="14.00" fill="#000000">&lt;core::fmt::Write::write_fmt::Adapter&lt;&#39;_, T&gt; as core::fmt::Write&gt;::write_str::h36b95fb1c564a948</text>
<text text-anchor="middle" x="1426.5" y="-289.8" font-family="Fira Code" font-size="14.00" fill="#000000">max &gt;= 40</text>
<text text-anchor="middle" x="1426.5" y="-274.8" font-family="Fira Code" font-size="14.00" fill="#000000">local = 40</text>
</g>
<!-- 7&#45;&gt;19 -->
<g id="edge9" class="edge">
<title>7&#45;&gt;19</title>
<path fill="none" stroke="#000000" d="M1137.1403,-266.9778C977.2116,-252.3191 783.1484,-234.5316 643.0516,-221.6906"/>
<polygon fill="#000000" stroke="#000000" points="643.3368,-218.2022 633.0591,-220.7747 642.6978,-225.173 643.3368,-218.2022"/>
</g>
<!-- 7&#45;&gt;23 -->
<g id="edge8" class="edge">
<title>7&#45;&gt;23</title>
<path fill="none" stroke="#000000" d="M1676.8451,-266.9778C1869.6022,-246.9275 2121.1287,-221.0236 2231.5121,-209.9308"/>
<polygon fill="#000000" stroke="#000000" points="2232.1463,-213.3849 2241.7471,-208.9043 2231.4477,-206.4198 2232.1463,-213.3849"/>
</g>
<!-- 7&#45;&gt;23 -->
<g id="edge10" class="edge">
<title>7&#45;&gt;23</title>
<path fill="none" stroke="#000000" d="M1689.314,-266.9778C1880.3913,-247.3493 2123.6857,-222.111 2231.6395,-210.6505"/>
<polygon fill="#000000" stroke="#000000" points="2232.0841,-214.123 2241.6579,-209.585 2231.3438,-207.1623 2232.0841,-214.123"/>
</g>
<!-- 8&#45;&gt;7 -->
<g id="edge2" class="edge">
<title>8&#45;&gt;7</title>
<path fill="none" stroke="#000000" d="M1150.2051,-356.8769C1197.3299,-346.0674 1252.4073,-333.4336 1300.9328,-322.3028"/>
<polygon fill="#000000" stroke="#000000" points="1301.8997,-325.672 1310.864,-320.0247 1300.3346,-318.8492 1301.8997,-325.672"/>
</g>
<!-- 9 -->
<g id="node10" class="node">
<title>9</title>
<polygon fill="none" stroke="#000000" points="2692,-320 1883,-320 1883,-267 2692,-267 2692,-320"/>
<text text-anchor="middle" x="2287.5" y="-304.8" font-family="Fira Code" font-size="14.00" fill="#000000">&lt;core::fmt::Write::write_fmt::Adapter&lt;&#39;_, T&gt; as core::fmt::Write&gt;::write_char::h83ef8ecf2b3664ff</text>
<text text-anchor="middle" x="2287.5" y="-289.8" font-family="Fira Code" font-size="14.00" fill="#000000">max &gt;= 40</text>
<text text-anchor="middle" x="2287.5" y="-274.8" font-family="Fira Code" font-size="14.00" fill="#000000">local = 40</text>
</g>
<!-- 9&#45;&gt;19 -->
<g id="edge12" class="edge">
<title>9&#45;&gt;19</title>
<path fill="none" stroke="#000000" d="M1882.7677,-269.507C1866.806,-268.6445 1851.004,-267.8055 1835.5,-267 1409.2714,-244.8545 908.7525,-223.2953 643.2066,-212.209"/>
<polygon fill="#000000" stroke="#000000" points="643.2174,-208.7065 633.0802,-211.7866 642.9256,-215.7004 643.2174,-208.7065"/>
</g>
<!-- 9&#45;&gt;23 -->
<g id="edge11" class="edge">
<title>9&#45;&gt;23</title>
<path fill="none" stroke="#000000" d="M2281.2547,-266.7971C2280.776,-258.7887 2280.6378,-249.8597 2280.8402,-241.3198"/>
<polygon fill="#000000" stroke="#000000" points="2284.343,-241.3191 2281.2558,-231.1841 2277.3489,-241.0322 2284.343,-241.3191"/>
</g>
<!-- 9&#45;&gt;23 -->
<g id="edge13" class="edge">
<title>9&#45;&gt;23</title>
<path fill="none" stroke="#000000" d="M2293.7453,-266.7971C2294.224,-258.7887 2294.3622,-249.8597 2294.1598,-241.3198"/>
<polygon fill="#000000" stroke="#000000" points="2297.6511,-241.0322 2293.7442,-231.1841 2290.657,-241.3191 2297.6511,-241.0322"/>
</g>
<!-- 10 -->
<g id="node11" class="node">
<title>10</title>
<polygon fill="none" stroke="#000000" points="2403,-409 2172,-409 2172,-356 2403,-356 2403,-409"/>
<text text-anchor="middle" x="2287.5" y="-393.8" font-family="Fira Code" font-size="14.00" fill="#000000">dyn fmt::Write::write_char</text>
<text text-anchor="middle" x="2287.5" y="-378.8" font-family="Fira Code" font-size="14.00" fill="#000000">max &gt;= 40</text>
<text text-anchor="middle" x="2287.5" y="-363.8" font-family="Fira Code" font-size="14.00" fill="#000000">local = 0</text>
</g>
<!-- 10&#45;&gt;9 -->
<g id="edge3" class="edge">
<title>10&#45;&gt;9</title>
<path fill="none" stroke="#000000" d="M2287.5,-355.7971C2287.5,-347.7887 2287.5,-338.8597 2287.5,-330.3198"/>
<polygon fill="#000000" stroke="#000000" points="2291.0001,-330.1841 2287.5,-320.1841 2284.0001,-330.1841 2291.0001,-330.1841"/>
</g>
<!-- 11&#45;&gt;8 -->
<g id="edge72" class="edge">
<title>11&#45;&gt;8</title>
<path fill="none" stroke="#000000" d="M1293.4089,-444.9778C1248.6751,-434.4281 1197.7609,-422.2579 1153.2478,-411.4773"/>
<polygon fill="#000000" stroke="#000000" points="1153.8066,-408.0115 1143.2634,-409.0564 1152.1571,-414.8144 1153.8066,-408.0115"/>
</g>
<!-- 11&#45;&gt;8 -->
<g id="edge73" class="edge">
<title>11&#45;&gt;8</title>
<path fill="none" stroke="#000000" d="M1305.6297,-444.9176C1260.321,-433.919 1207.0412,-421.1674 1160.022,-410.0676"/>
<polygon fill="#000000" stroke="#000000" points="1160.6252,-406.6139 1150.0888,-407.7254 1159.0186,-413.4271 1160.6252,-406.6139"/>
</g>
<!-- 20 -->
<g id="node21" class="node">
<title>20</title>
<polygon fill="none" stroke="#000000" points="2048.5,-142 1660.5,-142 1660.5,-89 2048.5,-89 2048.5,-142"/>
<text text-anchor="middle" x="1854.5" y="-126.8" font-family="Fira Code" font-size="14.00" fill="#000000">core::panicking::panic_fmt::h99ea3f713cb13aae</text>
<text text-anchor="middle" x="1854.5" y="-111.8" font-family="Fira Code" font-size="14.00" fill="#000000">max = 0</text>
<text text-anchor="middle" x="1854.5" y="-96.8" font-family="Fira Code" font-size="14.00" fill="#000000">local = 0</text>
</g>
<!-- 12&#45;&gt;20 -->
<g id="edge4" class="edge">
<title>12&#45;&gt;20</title>
<path fill="none" stroke="#000000" d="M2819.7168,-266.9615C2697.578,-241.9492 2507.4199,-204.4594 2341.5,-178 2248.8951,-163.2322 2145.9478,-149.6151 2058.6478,-138.8868"/>
<polygon fill="#000000" stroke="#000000" points="2058.9768,-135.401 2048.6255,-137.6593 2058.1258,-142.3491 2058.9768,-135.401"/>
</g>
<!-- 13 -->
<g id="node14" class="node">
<title>13</title>
<polygon fill="none" stroke="#000000" points="1609,-765 1196,-765 1196,-712 1609,-712 1609,-765"/>
<text text-anchor="middle" x="1402.5" y="-749.8" font-family="Fira Code" font-size="14.00" fill="#000000">core::ptr::real_drop_in_place::h5f0fe5a1b581f348</text>
<text text-anchor="middle" x="1402.5" y="-734.8" font-family="Fira Code" font-size="14.00" fill="#000000">max = 0</text>
<text text-anchor="middle" x="1402.5" y="-719.8" font-family="Fira Code" font-size="14.00" fill="#000000">local = 0</text>
</g>
<!-- 14 -->
<g id="node15" class="node">
<title>14</title>
<polygon fill="none" stroke="#000000" points="2910,-676 2811,-676 2811,-623 2910,-623 2910,-676"/>
<text text-anchor="middle" x="2860.5" y="-660.8" font-family="Fira Code" font-size="14.00" fill="#000000">Reset</text>
<text text-anchor="middle" x="2860.5" y="-645.8" font-family="Fira Code" font-size="14.00" fill="#000000">max &gt;= 176</text>
<text text-anchor="middle" x="2860.5" y="-630.8" font-family="Fira Code" font-size="14.00" fill="#000000">local = 0</text>
</g>
<!-- 14&#45;&gt;6 -->
<g id="edge16" class="edge">
<title>14&#45;&gt;6</title>
<path fill="none" stroke="#000000" d="M2880.6022,-622.7971C2887.0947,-614.1727 2894.391,-604.4806 2901.2596,-595.3566"/>
<polygon fill="#000000" stroke="#000000" points="2904.1938,-597.2784 2907.412,-587.1841 2898.6014,-593.0683 2904.1938,-597.2784"/>
</g>
<!-- 17 -->
<g id="node18" class="node">
<title>17</title>
<polygon fill="none" stroke="#000000" points="2859.5,-587 2727.5,-587 2727.5,-534 2859.5,-534 2859.5,-587"/>
<text text-anchor="middle" x="2793.5" y="-571.8" font-family="Fira Code" font-size="14.00" fill="#000000">DefaultPreInit</text>
<text text-anchor="middle" x="2793.5" y="-556.8" font-family="Fira Code" font-size="14.00" fill="#000000">max = 0</text>
<text text-anchor="middle" x="2793.5" y="-541.8" font-family="Fira Code" font-size="14.00" fill="#000000">local = 0</text>
</g>
<!-- 14&#45;&gt;17 -->
<g id="edge15" class="edge">
<title>14&#45;&gt;17</title>
<path fill="none" stroke="#000000" d="M2840.3978,-622.7971C2833.9053,-614.1727 2826.609,-604.4806 2819.7404,-595.3566"/>
<polygon fill="#000000" stroke="#000000" points="2822.3986,-593.0683 2813.588,-587.1841 2816.8062,-597.2784 2822.3986,-593.0683"/>
</g>
<!-- 15 -->
<g id="node16" class="node">
<title>15</title>
<polygon fill="none" stroke="#000000" points="1751.5,-765 1627.5,-765 1627.5,-712 1751.5,-712 1751.5,-765"/>
<text text-anchor="middle" x="1689.5" y="-749.8" font-family="Fira Code" font-size="14.00" fill="#000000">UserHardFault</text>
<text text-anchor="middle" x="1689.5" y="-734.8" font-family="Fira Code" font-size="14.00" fill="#000000">max = 0</text>
<text text-anchor="middle" x="1689.5" y="-719.8" font-family="Fira Code" font-size="14.00" fill="#000000">local = 0</text>
</g>
<!-- 16 -->
<g id="node17" class="node">
<title>16</title>
<polygon fill="none" stroke="#000000" points="1885.5,-765 1769.5,-765 1769.5,-712 1885.5,-712 1885.5,-765"/>
<text text-anchor="middle" x="1827.5" y="-749.8" font-family="Fira Code" font-size="14.00" fill="#000000">DebugMonitor</text>
<text text-anchor="middle" x="1827.5" y="-734.8" font-family="Fira Code" font-size="14.00" fill="#000000">max = 0</text>
<text text-anchor="middle" x="1827.5" y="-719.8" font-family="Fira Code" font-size="14.00" fill="#000000">local = 0</text>
</g>
<!-- 18 -->
<g id="node19" class="node">
<title>18</title>
<polygon fill="none" stroke="#000000" points="1933,-53 1776,-53 1776,0 1933,0 1933,-53"/>
<text text-anchor="middle" x="1854.5" y="-37.8" font-family="Fira Code" font-size="14.00" fill="#000000">rust_begin_unwind</text>
<text text-anchor="middle" x="1854.5" y="-22.8" font-family="Fira Code" font-size="14.00" fill="#000000">max = 0</text>
<text text-anchor="middle" x="1854.5" y="-7.8" font-family="Fira Code" font-size="14.00" fill="#000000">local = 0</text>
</g>
<!-- 19&#45;&gt;20 -->
<g id="edge39" class="edge">
<title>19&#45;&gt;20</title>
<path fill="none" stroke="#000000" d="M633.0392,-193.2055C892.9878,-176.6684 1375.9792,-145.942 1650.291,-128.4911"/>
<polygon fill="#000000" stroke="#000000" points="1650.6068,-131.9782 1660.3644,-127.8503 1650.1623,-124.9923 1650.6068,-131.9782"/>
</g>
<!-- 20&#45;&gt;18 -->
<g id="edge40" class="edge">
<title>20&#45;&gt;18</title>
<path fill="none" stroke="#000000" d="M1854.5,-88.7971C1854.5,-80.7887 1854.5,-71.8597 1854.5,-63.3198"/>
<polygon fill="#000000" stroke="#000000" points="1858.0001,-63.1841 1854.5,-53.1841 1851.0001,-63.1841 1858.0001,-63.1841"/>
</g>
<!-- 21&#45;&gt;20 -->
<g id="edge41" class="edge">
<title>21&#45;&gt;20</title>
<path fill="none" stroke="#000000" d="M1860.8032,-355.9229C1859.5486,-308.0667 1856.907,-207.3082 1855.474,-152.6529"/>
<polygon fill="#000000" stroke="#000000" points="1858.9653,-152.2707 1855.2043,-142.3659 1851.9677,-152.4542 1858.9653,-152.2707"/>
</g>
<!-- 22 -->
<g id="node23" class="node">
<title>22</title>
<polygon fill="none" stroke="#000000" points="1177.5,-765 731.5,-765 731.5,-712 1177.5,-712 1177.5,-765"/>
<text text-anchor="middle" x="954.5" y="-749.8" font-family="Fira Code" font-size="14.00" fill="#000000">core::fmt::ArgumentV1::show_usize::h0502aa100637b5c2</text>
<text text-anchor="middle" x="954.5" y="-734.8" font-family="Fira Code" font-size="14.00" fill="#000000">max &gt;= 216</text>
<text text-anchor="middle" x="954.5" y="-719.8" font-family="Fira Code" font-size="14.00" fill="#000000">local = 0</text>
</g>
<!-- 22&#45;&gt;2 -->
<g id="edge51" class="edge">
<title>22&#45;&gt;2</title>
<path fill="none" stroke="#000000" d="M954.5,-711.7971C954.5,-703.7887 954.5,-694.8597 954.5,-686.3198"/>
<polygon fill="#000000" stroke="#000000" points="958.0001,-686.1841 954.5,-676.1841 951.0001,-686.1841 958.0001,-686.1841"/>
</g>
<!-- 24 -->
<g id="node25" class="node">
<title>24</title>
<polygon fill="none" stroke="#000000" points="1995,-765 1904,-765 1904,-712 1995,-712 1995,-765"/>
<text text-anchor="middle" x="1949.5" y="-749.8" font-family="Fira Code" font-size="14.00" fill="#000000">HardFault</text>
<text text-anchor="middle" x="1949.5" y="-734.8" font-family="Fira Code" font-size="14.00" fill="#000000">max &gt;= 0</text>
<text text-anchor="middle" x="1949.5" y="-719.8" font-family="Fira Code" font-size="14.00" fill="#000000">local = ?</text>
</g>
</g>
</svg>
