<?xml version="1.0" encoding="UTF-8" standalone="no"?>
<!DOCTYPE svg PUBLIC "-//W3C//DTD SVG 1.1//EN"
 "http://www.w3.org/Graphics/SVG/1.1/DTD/svg11.dtd">
<!-- Generated by graphviz version 2.40.1 (20161225.0304)
 -->
<!-- Title: %3 Pages: 1 -->
<svg width="216pt" height="239pt"
 viewBox="0.00 0.00 216.00 239.00" xmlns="http://www.w3.org/2000/svg" xmlns:xlink="http://www.w3.org/1999/xlink">
<g id="graph0" class="graph" transform="scale(1 1) rotate(0) translate(4 235)">
<title>%3</title>
<polygon fill="#ffffff" stroke="transparent" points="-4,4 -4,-235 212,-235 212,4 -4,4"/>
<!-- 0 -->
<g id="node1" class="node">
<title>0</title>
<polygon fill="none" stroke="#000000" points="147,-231 56,-231 56,-178 147,-178 147,-231"/>
<text text-anchor="middle" x="101.5" y="-215.8" font-family="Fira Code" font-size="14.00" fill="#000000">main</text>
<text text-anchor="middle" x="101.5" y="-200.8" font-family="Fira Code" font-size="14.00" fill="#000000">max = 16</text>
<text text-anchor="middle" x="101.5" y="-185.8" font-family="Fira Code" font-size="14.00" fill="#000000">local = 0</text>
</g>
<!-- 1 -->
<g id="node2" class="node">
<title>1</title>
<polygon fill="none" stroke="#000000" points="147,-142 56,-142 56,-89 147,-89 147,-142"/>
<text text-anchor="middle" x="101.5" y="-126.8" font-family="Fira Code" font-size="14.00" fill="#000000">i1 ()*</text>
<text text-anchor="middle" x="101.5" y="-111.8" font-family="Fira Code" font-size="14.00" fill="#000000">max = 16</text>
<text text-anchor="middle" x="101.5" y="-96.8" font-family="Fira Code" font-size="14.00" fill="#000000">local = 0</text>
</g>
<!-- 0&#45;&gt;1 -->
<g id="edge1" class="edge">
<title>0&#45;&gt;1</title>
<path fill="none" stroke="#000000" d="M101.5,-177.7971C101.5,-169.7887 101.5,-160.8597 101.5,-152.3198"/>
<polygon fill="#000000" stroke="#000000" points="105.0001,-152.1841 101.5,-142.1841 98.0001,-152.1841 105.0001,-152.1841"/>
</g>
<!-- 2 -->
<g id="node3" class="node">
<title>2</title>
<polygon fill="none" stroke="#000000" points="91,-53 0,-53 0,0 91,0 91,-53"/>
<text text-anchor="middle" x="45.5" y="-37.8" font-family="Fira Code" font-size="14.00" fill="#000000">app::foo</text>
<text text-anchor="middle" x="45.5" y="-22.8" font-family="Fira Code" font-size="14.00" fill="#000000">max = 8</text>
<text text-anchor="middle" x="45.5" y="-7.8" font-family="Fira Code" font-size="14.00" fill="#000000">local = 8</text>
</g>
<!-- 1&#45;&gt;2 -->
<g id="edge2" class="edge">
<title>1&#45;&gt;2</title>
<path fill="none" stroke="#000000" d="M84.6982,-88.7971C79.3823,-80.3487 73.4218,-70.8757 67.7842,-61.9159"/>
<polygon fill="#000000" stroke="#000000" points="70.578,-59.784 62.29,-53.1841 64.6533,-63.512 70.578,-59.784"/>
</g>
<!-- 3 -->
<g id="node4" class="node">
<title>3</title>
<polygon fill="none" stroke="#000000" points="208,-53 109,-53 109,0 208,0 208,-53"/>
<text text-anchor="middle" x="158.5" y="-37.8" font-family="Fira Code" font-size="14.00" fill="#000000">app::bar</text>
<text text-anchor="middle" x="158.5" y="-22.8" font-family="Fira Code" font-size="14.00" fill="#000000">max = 16</text>
<text text-anchor="middle" x="158.5" y="-7.8" font-family="Fira Code" font-size="14.00" fill="#000000">local = 16</text>
</g>
<!-- 1&#45;&gt;3 -->
<g id="edge3" class="edge">
<title>1&#45;&gt;3</title>
<path fill="none" stroke="#000000" d="M118.6019,-88.7971C124.069,-80.2607 130.2061,-70.6782 135.9971,-61.6361"/>
<polygon fill="#000000" stroke="#000000" points="138.9643,-63.4927 141.4102,-53.1841 133.0696,-59.7175 138.9643,-63.4927"/>
</g>
</g>
</svg>
