<?xml version="1.0" encoding="UTF-8" standalone="no"?>
<!DOCTYPE svg PUBLIC "-//W3C//DTD SVG 1.1//EN"
 "http://www.w3.org/Graphics/SVG/1.1/DTD/svg11.dtd">
<!-- Generated by graphviz version 2.40.1 (20161225.0304)
 -->
<!-- Title: %3 Pages: 1 -->
<svg width="325pt" height="239pt"
 viewBox="0.00 0.00 325.00 239.00" xmlns="http://www.w3.org/2000/svg" xmlns:xlink="http://www.w3.org/1999/xlink">
<g id="graph0" class="graph" transform="scale(1 1) rotate(0) translate(4 235)">
<title>%3</title>
<polygon fill="#ffffff" stroke="transparent" points="-4,4 -4,-235 321,-235 321,4 -4,4"/>
<!-- 0 -->
<g id="node1" class="node">
<title>0</title>
<polygon fill="none" stroke="#000000" points="151,-231 60,-231 60,-178 151,-178 151,-231"/>
<text text-anchor="middle" x="105.5" y="-215.8" font-family="Fira Code" font-size="14.00" fill="#000000">main</text>
<text text-anchor="middle" x="105.5" y="-200.8" font-family="Fira Code" font-size="14.00" fill="#000000">max = 24</text>
<text text-anchor="middle" x="105.5" y="-185.8" font-family="Fira Code" font-size="14.00" fill="#000000">local = 8</text>
</g>
<!-- 1 -->
<g id="node2" class="node">
<title>1</title>
<polygon fill="none" stroke="#000000" points="198,-142 107,-142 107,-89 198,-89 198,-142"/>
<text text-anchor="middle" x="152.5" y="-126.8" font-family="Fira Code" font-size="14.00" fill="#000000">i32 ()*</text>
<text text-anchor="middle" x="152.5" y="-111.8" font-family="Fira Code" font-size="14.00" fill="#000000">max = 16</text>
<text text-anchor="middle" x="152.5" y="-96.8" font-family="Fira Code" font-size="14.00" fill="#000000">local = 0</text>
</g>
<!-- 0&#45;&gt;1 -->
<g id="edge1" class="edge">
<title>0&#45;&gt;1</title>
<path fill="none" stroke="#000000" d="M119.6015,-177.7971C124.0166,-169.4367 128.9615,-160.073 133.6493,-151.1961"/>
<polygon fill="#000000" stroke="#000000" points="136.8336,-152.6612 138.4084,-142.1841 130.6437,-149.3924 136.8336,-152.6612"/>
</g>
<!-- 2 -->
<g id="node3" class="node">
<title>2</title>
<polygon fill="none" stroke="#000000" points="99,-53 0,-53 0,0 99,0 99,-53"/>
<text text-anchor="middle" x="49.5" y="-37.8" font-family="Fira Code" font-size="14.00" fill="#000000">app::baz</text>
<text text-anchor="middle" x="49.5" y="-22.8" font-family="Fira Code" font-size="14.00" fill="#000000">max = 16</text>
<text text-anchor="middle" x="49.5" y="-7.8" font-family="Fira Code" font-size="14.00" fill="#000000">local = 16</text>
</g>
<!-- 0&#45;&gt;2 -->
<g id="edge2" class="edge">
<title>0&#45;&gt;2</title>
<path fill="none" stroke="#000000" d="M97.1162,-177.8516C87.4798,-147.2216 71.6139,-96.7907 60.8704,-62.6416"/>
<polygon fill="#000000" stroke="#000000" points="64.1893,-61.5281 57.8495,-53.0395 57.5119,-63.6289 64.1893,-61.5281"/>
</g>
<!-- 1&#45;&gt;2 -->
<g id="edge4" class="edge">
<title>1&#45;&gt;2</title>
<path fill="none" stroke="#000000" d="M121.5966,-88.7971C111.1064,-79.7327 99.2511,-69.4888 88.2288,-59.9647"/>
<polygon fill="#000000" stroke="#000000" points="90.2365,-57.0739 80.3816,-53.1841 85.6598,-62.3705 90.2365,-57.0739"/>
</g>
<!-- 3 -->
<g id="node4" class="node">
<title>3</title>
<polygon fill="none" stroke="#000000" points="208,-53 117,-53 117,0 208,0 208,-53"/>
<text text-anchor="middle" x="162.5" y="-37.8" font-family="Fira Code" font-size="14.00" fill="#000000">app::foo</text>
<text text-anchor="middle" x="162.5" y="-22.8" font-family="Fira Code" font-size="14.00" fill="#000000">max = 8</text>
<text text-anchor="middle" x="162.5" y="-7.8" font-family="Fira Code" font-size="14.00" fill="#000000">local = 8</text>
</g>
<!-- 1&#45;&gt;3 -->
<g id="edge3" class="edge">
<title>1&#45;&gt;3</title>
<path fill="none" stroke="#000000" d="M155.5003,-88.7971C156.4001,-80.7887 157.4034,-71.8597 158.3629,-63.3198"/>
<polygon fill="#000000" stroke="#000000" points="161.8632,-63.5124 159.5018,-53.1841 154.907,-62.7307 161.8632,-63.5124"/>
</g>
<!-- 4 -->
<g id="node5" class="node">
<title>4</title>
<polygon fill="none" stroke="#000000" points="317,-53 226,-53 226,0 317,0 317,-53"/>
<text text-anchor="middle" x="271.5" y="-37.8" font-family="Fira Code" font-size="14.00" fill="#000000">app::bar</text>
<text text-anchor="middle" x="271.5" y="-22.8" font-family="Fira Code" font-size="14.00" fill="#000000">max = 0</text>
<text text-anchor="middle" x="271.5" y="-7.8" font-family="Fira Code" font-size="14.00" fill="#000000">local = 0</text>
</g>
<!-- 1&#45;&gt;4 -->
<g id="edge5" class="edge">
<title>1&#45;&gt;4</title>
<path fill="none" stroke="#000000" d="M188.2039,-88.7971C200.5591,-79.5567 214.5531,-69.0905 227.4957,-59.4107"/>
<polygon fill="#000000" stroke="#000000" points="229.9094,-61.9762 235.8213,-53.1841 225.7169,-56.3705 229.9094,-61.9762"/>
</g>
</g>
</svg>
