<?xml version="1.0" encoding="UTF-8" standalone="no"?>
<!DOCTYPE svg PUBLIC "-//W3C//DTD SVG 1.1//EN"
 "http://www.w3.org/Graphics/SVG/1.1/DTD/svg11.dtd">
<!-- Generated by graphviz version 2.40.1 (20161225.0304)
 -->
<!-- Title: %3 Pages: 1 -->
<svg width="390pt" height="239pt"
 viewBox="0.00 0.00 389.50 239.00" xmlns="http://www.w3.org/2000/svg" xmlns:xlink="http://www.w3.org/1999/xlink">
<g id="graph0" class="graph" transform="scale(1 1) rotate(0) translate(4 235)">
<title>%3</title>
<polygon fill="#ffffff" stroke="transparent" points="-4,4 -4,-235 385.5,-235 385.5,4 -4,4"/>
<!-- 0 -->
<g id="node1" class="node">
<title>0</title>
<polygon fill="none" stroke="#000000" points="272.5,-231 181.5,-231 181.5,-178 272.5,-178 272.5,-231"/>
<text text-anchor="middle" x="227" y="-215.8" font-family="monospace" font-size="14.00" fill="#000000">main</text>
<text text-anchor="middle" x="227" y="-200.8" font-family="monospace" font-size="14.00" fill="#000000">max = 16</text>
<text text-anchor="middle" x="227" y="-185.8" font-family="monospace" font-size="14.00" fill="#000000">local = 0</text>
</g>
<!-- 1 -->
<g id="node2" class="node">
<title>1</title>
<polygon fill="none" stroke="#000000" stroke-dasharray="5,2" points="207.5,-142 116.5,-142 116.5,-89 207.5,-89 207.5,-142"/>
<text text-anchor="middle" x="162" y="-126.8" font-family="monospace" font-size="14.00" fill="#000000">i1 ({}*)</text>
<text text-anchor="middle" x="162" y="-111.8" font-family="monospace" font-size="14.00" fill="#000000">max = 16</text>
<text text-anchor="middle" x="162" y="-96.8" font-family="monospace" font-size="14.00" fill="#000000">local = 0</text>
</g>
<!-- 0&#45;&gt;1 -->
<g id="edge1" class="edge">
<title>0&#45;&gt;1</title>
<path fill="none" stroke="#000000" d="M207.4979,-177.7971C201.1992,-169.1727 194.1206,-159.4806 187.4571,-150.3566"/>
<polygon fill="#000000" stroke="#000000" points="190.2128,-148.1954 181.4884,-142.1841 184.5599,-152.324 190.2128,-148.1954"/>
</g>
<!-- 2 -->
<g id="node3" class="node">
<title>2</title>
<polygon fill="none" stroke="#000000" points="358,-142 226,-142 226,-89 358,-89 358,-142"/>
<text text-anchor="middle" x="292" y="-126.8" font-family="monospace" font-size="14.00" fill="#000000">app::Quux::foo</text>
<text text-anchor="middle" x="292" y="-111.8" font-family="monospace" font-size="14.00" fill="#000000">max = 0</text>
<text text-anchor="middle" x="292" y="-96.8" font-family="monospace" font-size="14.00" fill="#000000">local = 0</text>
</g>
<!-- 0&#45;&gt;2 -->
<g id="edge2" class="edge">
<title>0&#45;&gt;2</title>
<path fill="none" stroke="#000000" d="M246.5021,-177.7971C252.8008,-169.1727 259.8794,-159.4806 266.5429,-150.3566"/>
<polygon fill="#000000" stroke="#000000" points="269.4401,-152.324 272.5116,-142.1841 263.7872,-148.1954 269.4401,-152.324"/>
</g>
<!-- 3 -->
<g id="node4" class="node">
<title>3</title>
<polygon fill="none" stroke="#000000" points="124,-53 0,-53 0,0 124,0 124,-53"/>
<text text-anchor="middle" x="62" y="-37.8" font-family="monospace" font-size="14.00" fill="#000000">app::Foo::foo</text>
<text text-anchor="middle" x="62" y="-22.8" font-family="monospace" font-size="14.00" fill="#000000">max = 8</text>
<text text-anchor="middle" x="62" y="-7.8" font-family="monospace" font-size="14.00" fill="#000000">local = 8</text>
</g>
<!-- 1&#45;&gt;3 -->
<g id="edge3" class="edge">
<title>1&#45;&gt;3</title>
<path fill="none" stroke="#000000" d="M131.9967,-88.7971C121.812,-79.7327 110.302,-69.4888 99.6008,-59.9647"/>
<polygon fill="#000000" stroke="#000000" points="101.779,-57.2179 91.9821,-53.1841 97.1252,-62.4469 101.779,-57.2179"/>
</g>
<!-- 4 -->
<g id="node5" class="node">
<title>4</title>
<polygon fill="none" stroke="#000000" points="381.5,-53 142.5,-53 142.5,0 381.5,0 381.5,-53"/>
<text text-anchor="middle" x="262" y="-37.8" font-family="monospace" font-size="14.00" fill="#000000">&lt;app::Baz as app::Foo&gt;::foo</text>
<text text-anchor="middle" x="262" y="-22.8" font-family="monospace" font-size="14.00" fill="#000000">max = 16</text>
<text text-anchor="middle" x="262" y="-7.8" font-family="monospace" font-size="14.00" fill="#000000">local = 16</text>
</g>
<!-- 1&#45;&gt;4 -->
<g id="edge4" class="edge">
<title>1&#45;&gt;4</title>
<path fill="none" stroke="#000000" d="M192.0033,-88.7971C202.188,-79.7327 213.698,-69.4888 224.3992,-59.9647"/>
<polygon fill="#000000" stroke="#000000" points="226.8748,-62.4469 232.0179,-53.1841 222.221,-57.2179 226.8748,-62.4469"/>
</g>
</g>
</svg>
